SplineFontDB: 3.0
FontName: Rokkitt-Book
FullName: Rokkitt Book
FamilyName: Rokkitt
Weight: Medium
Copyright: Copyright (c) 2011-13 by vernon adams. All rights reserved. with\nReserved Font Names "Rokkitt". This\nFont Software is licensed under the SIL Open Font License, Version\n1.1. This license is available with a FAQ at:\nhttp://scripts.sil.org/OFL
Version: 
ItalicAngle: 0
UnderlinePosition: 0
UnderlineWidth: 0
Ascent: 1638
Descent: 410
UFOAscent: 1152
UFODescent: -410
LayerCount: 2
Layer: 0 0 "Back"  1
Layer: 1 0 "Fore"  0
FSType: 256
OS2Version: 0
OS2_WeightWidthSlopeOnly: 0
OS2_UseTypoMetrics: 1
CreationTime: 1378247473
ModificationTime: 1378249823
PfmFamily: 17
TTFWeight: 400
TTFWidth: 5
LineGap: 0
VLineGap: 0
OS2TypoAscent: 1638
OS2TypoAOffset: 0
OS2TypoDescent: -569
OS2TypoDOffset: 0
OS2TypoLinegap: 0
OS2WinAscent: 1638
OS2WinAOffset: 0
OS2WinDescent: 569
OS2WinDOffset: 0
HheadAscent: 1638
HheadAOffset: 0
HheadDescent: -569
HheadDOffset: 0
OS2Vendor: 'newt'
Lookup: 4 0 1 "ligaStandardLigatureslookup0"  {"ligaStandardLigatureslookup0 subtable"  } ['liga' ('latn' <'dflt' > 'grek' <'dflt' > 'DFLT' <'dflt' > ) ]
Lookup: 258 0 0 "'kern' Horizontal Kerning in Latin lookup 0"  {"'kern' Horizontal Kerning in Latin lookup 0 subtable"  } ['kern' ('latn' <'dflt' > ) ]
Lookup: 258 0 0 "kernHorizontalKerninginLatinloo"  {"kernHorizontalKerninginLatinloo per glyph data 0"  "kernHorizontalKerninginLatinloo kerning class 1"  } ['kern' ('latn' <'dflt' > 'DFLT' <'dflt' > ) ]
MarkAttachClasses: 1
DEI: 91125
KernClass2: 26 23 "kernHorizontalKerninginLatinloo kerning class 1" 
 81 A Aacute Abreve Acircumflex Adieresis Agrave Amacron Aogonek Aring Atilde uni0202
 75 D Eth O Oacute Ocircumflex Odieresis Ograve Oslash Otilde Q uni020C uni020E
 1 F
 1 K
 1 L
 1 P
 44 R Racute Rcaron Rcommaaccent uni0210 uni0212
 22 T Tcommaaccent uni021A
 45 U Uacute Ucircumflex Udieresis Ugrave uni0216
 1 V
 1 W
 18 Y Yacute Ydieresis
 1 a

StartChar: A
Encoding: 65 65 0
Width: 1267
VWidth: 0
GlyphClass: 2
Flags: HW
LayerCount: 2
Fore
SplineSet
489 0 m 1
 489 116 l 1
 344 116 l 1
 435 422 l 1
 838 422 l 1
 939 116 l 1
 777 116 l 1
 777 0 l 1
 1237 0 l 1
 1237 116 l 1
 1096 116 l 1
 774 1036 l 1
 918 1036 l 1
 918 1152 l 1
 336 1152 l 1
 336 1036 l 1
 482 1036 l 1
 178 116 l 1
 30 116 l 1
 30 0 l 1
 489 0 l 1
625 1036 m 1
 636 1036 l 1
 803 531 l 1
 465 531 l 1
 625 1036 l 1
EndSplineSet
EndChar

StartChar: AE
Encoding: 198 198 1
Width: 1733
VWidth: 0
GlyphClass: 2
Flags: HW
LayerCount: 2
Fore
SplineSet
825 545 m 1
 707 1037 l 1
 639 1037 l 1
 442 545 l 1
 825 545 l 1
1563 832 m 1
 1431 832 l 1
 1380 1037 l 1
 867 1037 l 1
 958 655 l 1
 1320 655 l 1
 1296 769 l 1
 1393 769 l 1
 1478 410 l 1
 1380 410 l 1
 1341 548 l 1
 982 548 l 1
 1089 116 l 1
 1580 116 l 1
 1528 328 l 1
 1657 328 l 1
 1735 0 l 1
 744 0 l 1
 756 116 l 1
 928 116 l 1
 854 424 l 1
 393 424 l 1
 287 116 l 1
 441 116 l 1
 430 0 l 1
 -23 0 l 1
 -12 116 l 1
 121 116 l 1
 496 1037 l 1
 394 1037 l 1
 410 1153 l 1
 1487 1153 l 1
 1563 832 l 1
EndSplineSet
EndChar

StartChar: B
Encoding: 66 66 11
Width: 1051
VWidth: 0
GlyphClass: 2
Flags: HW
LayerCount: 2
Fore
SplineSet
290 116 m 1
 290 0 l 1
 547 0 l 2
 796 0 988 94 988 323 c 0
 988 478 885 575 753 607 c 1
 857 649 934 740 934 854 c 0
 934 1058 781 1150 558 1152 c 1
 290 1152 l 1
 290 1036 l 1
 519 1036 l 2
 685 1036 768 975 768 851 c 0
 768 719 686 661 543 661 c 2
 294 661 l 1
 294 532 l 1
 552 532 l 2
 710 532 821 466 821 332 c 0
 821 188 729 116 546 116 c 2
 290 116 l 1
EndSplineSet
Refer: 335 -1 N 1 0 0 1 0 0 2
EndChar

StartChar: C
Encoding: 67 67 12
Width: 1228
VWidth: 0
GlyphClass: 2
Flags: HW
LayerCount: 2
Fore
SplineSet
1185 307 m 1
 1068 378 l 1
 1004 225 864 115 672 115 c 0
 406 115 243 302 243 580 c 0
 243 837 391 1036 645 1036 c 0
 825 1036 989 950 1029 765 c 1
 1154 765 l 1
 1154 1153 l 1
 1024 1153 l 1
 1024 987 l 1
 945 1117 819 1171 641 1171 c 0
 313 1171 66 933 66 575 c 1
 68 220 308 -18 671 -18 c 0
 925 -18 1095 116 1185 307 c 1
EndSplineSet
EndChar

StartChar: D
Encoding: 68 68 18
Width: 1284
VWidth: 0
GlyphClass: 2
Flags: HW
LayerCount: 2
Fore
SplineSet
292 116 m 1
 292 0 l 1
 612 0 l 2
 1012 0 1212 199 1212 596 c 0
 1212 963 989 1152 626 1152 c 2
 292 1152 l 1
 292 1036 l 1
 622 1036 l 2
 910 1036 1047 865 1047 581 c 0
 1047 308 913 116 638 116 c 2
 292 116 l 1
EndSplineSet
Refer: 335 -1 N 1 0 0 1 0 0 2
EndChar

StartChar: E
Encoding: 69 69 20
Width: 1097
VWidth: 0
GlyphClass: 2
Flags: HW
LayerCount: 2
Fore
SplineSet
888 1036 m 1
 888 832 l 1
 1019 832 l 1
 1019 1152 l 1
 291 1152 l 1
 291 1036 l 1
 888 1036 l 1
290 526 m 1
 686 526 l 1
 686 410 l 1
 787 410 l 1
 787 769 l 1
 687 769 l 1
 687 655 l 1
 290 655 l 1
 290 526 l 1
291 116 m 1
 291 0 l 1
 1028 0 l 1
 1028 328 l 1
 899 328 l 1
 899 116 l 1
 291 116 l 1
EndSplineSet
Refer: 335 -1 N 1 0 0 1 0 0 2
EndChar

StartChar: Eth
Encoding: 208 208 30
AltUni2: 000110.ffffffff.0
Width: 1271
VWidth: 0
GlyphClass: 2
Flags: HW
LayerCount: 2
Fore
SplineSet
609 1037 m 2
 380 1037 l 1
 380 650 l 1
 578 650 l 1
 578 506 l 1
 380 506 l 1
 380 116 l 1
 625 116 l 2
 900 116 1034 308 1034 581 c 0
 1034 865 897 1037 609 1037 c 2
61 506 m 1
 61 650 l 1
 218 650 l 1
 218 1037 l 1
 59 1037 l 1
 59 1153 l 1
 613 1153 l 2
 975 1153 1199 963 1199 596 c 0
 1199 199 999 0 599 0 c 2
 59 0 l 1
 59 116 l 1
 218 116 l 1
 218 506 l 1
 61 506 l 1
EndSplineSet
EndChar

StartChar: Euro
Encoding: 8364 8364 31
Width: 1093
VWidth: 0
GlyphClass: 2
Flags: HW
LayerCount: 2
Fore
SplineSet
662 -18 m 0
 376 -18 221 175 180 430 c 1
 30 430 l 1
 30 544 l 1
 169 544 l 1
 169 575 l 2
 169 602 170 630 173 658 c 1
 30 658 l 1
 30 771 l 1
 192 771 l 1
 236 956 329 1079 470 1140 c 0
 518 1161 571 1171 630 1171 c 0
 737 1171 826 1128 897 1042 c 1
 897 1153 l 1
 1027 1153 l 1
 1027 804 l 1
 902 804 l 1
 822 932 737 1010 648 1037 c 1
 545 1037 465 985 410 880 c 0
 393 847 379 811 369 771 c 1
 618 771 l 1
 618 658 l 1
 349 658 l 1
 347 633 346 607 346 580 c 2
 346 544 l 1
 618 544 l 1
 618 430 l 1
 357 430 l 1
 432 264 531 159 654 116 c 1
 803 116 893 229 923 378 c 1
 1058 307 l 1
 1019 187 958 100 874 46 c 0
 807 3 737 -18 662 -18 c 0
EndSplineSet
EndChar

StartChar: F
Encoding: 70 70 32
Width: 997
VWidth: 0
GlyphClass: 2
Flags: HW
LayerCount: 2
Fore
SplineSet
858 1036 m 1
 858 832 l 1
 989 832 l 1
 989 1152 l 1
 291 1152 l 1
 291 1036 l 1
 858 1036 l 1
290 526 m 1
 697 526 l 1
 697 410 l 1
 798 410 l 1
 798 769 l 1
 698 769 l 1
 698 655 l 1
 290 655 l 1
 290 526 l 1
EndSplineSet
Refer: 335 -1 N 1 0 0 1 0 0 2
EndChar

StartChar: G
Encoding: 71 71 33
Width: 1284
VWidth: 0
GlyphClass: 2
Flags: HW
LayerCount: 2
Fore
SplineSet
827 436 m 1
 1054 436 l 1
 1047 235 918 115 672 115 c 0
 406 115 243 302 243 580 c 0
 243 837 391 1036 645 1036 c 0
 825 1036 989 950 1029 765 c 1
 1154 765 l 1
 1154 1152 l 1
 1024 1152 l 1
 1024 987 l 1
 945 1117 819 1171 641 1171 c 0
 313 1171 66 933 66 575 c 1
 68 220 309 -18 672 -18 c 0
 1035 -18 1218 179 1218 563 c 1
 827 563 l 1
 827 436 l 1
EndSplineSet
EndChar

StartChar: H
Encoding: 72 72 38
Width: 1288
VWidth: 0
GlyphClass: 2
Flags: HW
LayerCount: 2
Fore
SplineSet
1002 667 m 1
 289 667 l 1
 289 538 l 1
 1002 538 l 1
 1002 667 l 1
EndSplineSet
Refer: 335 -1 N 1 0 0 1 0 0 2
Refer: 335 -1 N 1 0 0 1 716 0 2
EndChar

StartChar: Hbar
Encoding: 294 294 39
Width: 1294
VWidth: 0
Flags: HW
LayerCount: 2
Fore
SplineSet
780 1153 m 1
 1222 1153 l 1
 1222 1037 l 1
 1083 1037 l 1
 1083 895 l 1
 1221 895 l 1
 1221 810 l 1
 1083 810 l 1
 1083 116 l 1
 1222 116 l 1
 1222 0 l 1
 780 0 l 1
 780 116 l 1
 923 116 l 1
 923 538 l 1
 372 538 l 1
 372 116 l 1
 515 116 l 1
 515 0 l 1
 72 0 l 1
 72 116 l 1
 211 116 l 1
 211 810 l 1
 71 810 l 1
 71 895 l 1
 211 895 l 1
 211 1037 l 1
 72 1037 l 1
 72 1153 l 1
 515 1153 l 1
 515 1037 l 1
 371 1037 l 1
 371 895 l 1
 922 895 l 1
 922 1037 l 1
 780 1037 l 1
 780 1153 l 1
922 810 m 1
 371 810 l 1
 371 667 l 1
 922 667 l 1
 922 810 l 1
EndSplineSet
EndChar

StartChar: J
Encoding: 74 74 52
Width: 585
VWidth: 0
GlyphClass: 2
Flags: HW
LayerCount: 2
Fore
SplineSet
246 117 m 2
 246 22 225 -34 135 -34 c 2
 4 -34 l 1
 4 -179 l 1
 162 -179 l 1
 321 -181 409 -74 409 99 c 2
 409 1036 l 1
 562 1036 l 1
 562 1152 l 1
 80 1152 l 1
 80 1036 l 1
 246 1036 l 1
 246 117 l 2
EndSplineSet
EndChar

StartChar: K
Encoding: 75 75 54
Width: 1162
VWidth: 0
GlyphClass: 2
Flags: HW
LayerCount: 2
Fore
SplineSet
791 116 m 1
 663 116 l 1
 663 0 l 1
 1129 0 l 1
 1129 116 l 1
 998 116 l 1
 568 605 l 1
 989 1036 l 1
 1118 1036 l 1
 1118 1152 l 1
 667 1152 l 1
 667 1036 l 1
 803 1036 l 1
 363 603 l 1
 791 116 l 1
EndSplineSet
Refer: 335 -1 N 1 0 0 1 0 0 2
EndChar

StartChar: L
Encoding: 76 76 56
Width: 966
VWidth: 0
GlyphClass: 2
Flags: HW
LayerCount: 2
Fore
SplineSet
290 116 m 1
 290 0 l 1
 946 0 l 1
 946 452 l 1
 801 452 l 1
 801 116 l 1
 290 116 l 1
EndSplineSet
Refer: 335 -1 N 1 0 0 1 0 0 2
EndChar

StartChar: Lslash
Encoding: 321 321 61
Width: 984
VWidth: 0
GlyphClass: 2
Flags: HW
LayerCount: 2
Fore
SplineSet
59 1153 m 1
 533 1153 l 1
 533 1037 l 1
 378 1037 l 1
 378 705 l 1
 627 805 l 1
 627 676 l 1
 378 576 l 1
 378 116 l 1
 788 116 l 1
 788 452 l 1
 933 452 l 1
 933 0 l 1
 59 0 l 1
 59 116 l 1
 217 116 l 1
 217 512 l 1
 60 450 l 1
 60 579 l 1
 217 641 l 1
 217 1037 l 1
 59 1037 l 1
 59 1153 l 1
EndSplineSet
EndChar

StartChar: M
Encoding: 77 77 62
Width: 1590
VWidth: 0
GlyphClass: 2
Flags: HW
LayerCount: 2
Fore
SplineSet
354 116 m 1
 354 1021 l 1
 766 0 l 1
 808 0 l 1
 1223 1022 l 1
 1223 116 l 1
 1090 116 l 1
 1090 0 l 1
 1518 0 l 1
 1518 116 l 1
 1371 116 l 1
 1371 1036 l 1
 1518 1036 l 1
 1518 1152 l 1
 1128 1152 l 1
 790 317 l 1
 457 1152 l 1
 72 1152 l 1
 72 1036 l 1
 220 1036 l 1
 220 116 l 1
 72 116 l 1
 72 0 l 1
 487 0 l 1
 487 116 l 1
 354 116 l 1
EndSplineSet
EndChar

StartChar: N
Encoding: 78 78 63
Width: 1326
VWidth: 0
GlyphClass: 2
Flags: HW
LayerCount: 2
Fore
SplineSet
72 1152 m 1
 72 1036 l 1
 241 1036 l 1
 241 116 l 1
 72 116 l 1
 72 0 l 1
 544 0 l 1
 544 116 l 1
 375 116 l 1
 375 996 l 1
 953 0 l 1
 1136 0 l 1
 1136 1036 l 1
 1309 1036 l 1
 1309 1152 l 1
 837 1152 l 1
 837 1036 l 1
 1002 1036 l 1
 1002 211 l 1
 454 1152 l 1
 72 1152 l 1
EndSplineSet
EndChar

StartChar: O
Encoding: 79 79 68
Width: 1321
VWidth: 0
GlyphClass: 2
Flags: HW
LayerCount: 2
Fore
SplineSet
659 1170 m 3
 1013 1170 1256 924 1256 575 c 3
 1256 234 1011 -19 659 -19 c 3
 307 -19 62 234 62 575 c 3
 62 924 305 1170 659 1170 c 3
659 116 m 3
 932 116 1078 322 1078 575 c 3
 1078 831 935 1037 659 1037 c 3
 383 1037 240 831 240 575 c 3
 240 322 386 116 659 116 c 3
EndSplineSet
EndChar

StartChar: OE
Encoding: 338 338 69
Width: 1920
VWidth: 0
GlyphClass: 2
Flags: HW
LayerCount: 2
Fore
SplineSet
245 577 m 1
 244 300 411 116 673 116 c 0
 794 116 908 156 1017 235 c 1
 1017 933 l 1
 904 1002 787 1037 664 1037 c 0
 399 1038 244 855 245 577 c 1
67 575 m 1
 66 911 291 1169 624 1170 c 0
 789 1170 920 1133 1017 1057 c 1
 1017 1153 l 1
 1832 1153 l 1
 1832 832 l 1
 1700 832 l 1
 1700 1037 l 1
 1176 1037 l 1
 1176 655 l 1
 1538 655 l 1
 1538 769 l 1
 1638 769 l 1
 1638 410 l 1
 1537 410 l 1
 1537 526 l 1
 1178 526 l 1
 1178 116 l 1
 1703 116 l 1
 1703 328 l 1
 1832 328 l 1
 1832 0 l 1
 1017 0 l 1
 1017 95 l 1
 920 20 789 -18 624 -18 c 0
 292 -18 66 241 67 575 c 1
EndSplineSet
EndChar

StartChar: Oslash
Encoding: 216 216 77
Width: 1321
VWidth: 0
GlyphClass: 2
Flags: HW
LayerCount: 2
Fore
SplineSet
660 -19 m 0
 582 -19 510 -8 443 15 c 1
 389 -92 l 1
 295 -49 l 1
 349 57 l 1
 160 163 66 343 66 596 c 0
 66 935 336 1171 654 1171 c 0
 742 1171 821 1157 894 1130 c 1
 947 1235 l 1
 1041 1192 l 1
 987 1085 l 1
 1166 976 1256 799 1256 554 c 0
 1256 208 991 -19 660 -19 c 0
658 1037 m 0
 410 1037 243 827 243 575 c 0
 243 405 317 270 418 194 c 1
 829 1002 l 1
 777 1025 720 1037 658 1037 c 0
1078 586 m 0
 1078 742 1008 874 917 948 c 1
 509 143 l 1
 554 125 606 116 666 116 c 0
 928 116 1078 321 1078 586 c 0
EndSplineSet
EndChar

StartChar: P
Encoding: 80 80 79
Width: 1043
VWidth: 0
GlyphClass: 2
Flags: HW
LayerCount: 2
Fore
SplineSet
610 1036 m 2
 745 1036 840 952 840 807 c 0
 840 646 758 577 534 577 c 2
 293 577 l 1
 293 472 l 1
 534 472 l 2
 822 472 1001 553 1001 805 c 0
 1001 1039 849 1152 610 1152 c 2
 287 1152 l 1
 287 1036 l 1
 610 1036 l 2
EndSplineSet
Refer: 335 -1 N 1 0 0 1 0 0 2
EndChar

StartChar: Q
Encoding: 81 81 80
Width: 1323
VWidth: 0
GlyphClass: 2
Flags: HW
LayerCount: 2
Fore
SplineSet
993 -229 m 0
 1058 -229 1117 -214 1175 -192 c 1
 1130 -70 l 1
 1095 -81 1046 -97 987 -97 c 0
 917 -97 834 -75 744 4 c 1
 1036 36 1257 251 1257 586 c 0
 1257 921 1009 1171 665 1171 c 0
 308 1171 66 924 66 573 c 0
 66 273 258 67 512 9 c 1
 711 -169 863 -229 993 -229 c 0
660 116 m 0
 407 116 243 319 243 574 c 0
 243 829 409 1036 660 1037 c 1
 913 1036 1079 830 1079 574 c 0
 1079 317 915 116 660 116 c 0
EndSplineSet
EndChar

StartChar: R
Encoding: 82 82 81
Width: 1162
VWidth: 0
GlyphClass: 2
Flags: HW
LayerCount: 2
Fore
SplineSet
611 1036 m 2
 739 1036 833 990 837 868 c 0
 841 737 771 657 630 657 c 2
 295 657 l 1
 295 538 l 1
 558 538 l 1
 885 0 l 1
 1144 0 l 1
 1144 116 l 1
 998 116 l 1
 714 558 l 1
 902 572 1003 691 1003 855 c 0
 1003 1067 858 1152 623 1152 c 2
 291 1152 l 1
 291 1036 l 1
 611 1036 l 2
EndSplineSet
Refer: 335 -1 N 1 0 0 1 0 0 2
EndChar

StartChar: S
Encoding: 83 83 85
Width: 965
VWidth: 0
GlyphClass: 2
Flags: HW
LayerCount: 2
Fore
SplineSet
532 -18 m 0
 741 -18 914 105 914 303 c 0
 914 781 248 553 248 855 c 0
 248 984 335 1037 466 1037 c 0
 570 1037 654 994 717 908 c 1
 717 826 l 1
 852 826 l 1
 852 1152 l 1
 717 1152 l 1
 717 1078 l 1
 639 1139 549 1171 448 1171 c 0
 248 1171 92 1059 92 858 c 0
 92 379 749 652 749 298 c 0
 749 178 638 116 506 116 c 0
 405 116 314 168 235 271 c 1
 235 387 l 1
 100 387 l 1
 100 0 l 1
 235 0 l 1
 235 87 l 1
 319 17 418 -18 532 -18 c 0
EndSplineSet
EndChar

StartChar: T
Encoding: 84 84 91
Width: 1009
VWidth: 0
GlyphClass: 2
Flags: HW
LayerCount: 2
Fore
SplineSet
31 1152 m 1
 31 805 l 1
 160 805 l 1
 160 1036 l 1
 847 1036 l 1
 847 805 l 1
 978 805 l 1
 978 1152 l 1
 31 1152 l 1
EndSplineSet
Refer: 335 -1 N 1 0 0 1 220 0 2
EndChar

StartChar: Thorn
Encoding: 222 222 94
Width: 1030
VWidth: 0
GlyphClass: 2
Flags: HW
LayerCount: 2
Fore
SplineSet
374 1038 m 1
 374 929 l 1
 596 929 l 1
 825 930 992 817 992 594 c 0
 992 320 825 248 522 248 c 2
 376 248 l 1
 376 116 l 1
 534 116 l 1
 534 0 l 1
 63 0 l 1
 63 116 l 1
 214 116 l 1
 214 1037 l 1
 63 1037 l 1
 63 1153 l 1
 534 1153 l 1
 534 1038 l 1
 374 1038 l 1
374 802 m 1
 374 373 l 1
 552 373 l 2
 738 373 824 435 827 583 c 1
 827 728 746 802 601 802 c 2
 374 802 l 1
EndSplineSet
EndChar

StartChar: U
Encoding: 85 85 95
Width: 1175
VWidth: 0
GlyphClass: 2
Flags: HW
LayerCount: 2
Fore
SplineSet
850 389 m 2
 850 202 778 116 587 116 c 0
 409 116 326 195 326 378 c 2
 326 1036 l 1
 468 1036 l 1
 468 1152 l 1
 16 1152 l 1
 16 1036 l 1
 164 1036 l 1
 164 382 l 2
 164 116 316 -18 580 -18 c 0
 855 -18 1012 106 1012 380 c 2
 1012 1036 l 1
 1159 1036 l 1
 1159 1152 l 1
 708 1152 l 1
 708 1036 l 1
 850 1036 l 1
 850 389 l 2
EndSplineSet
EndChar

StartChar: V
Encoding: 86 86 106
Width: 1207
VWidth: 0
GlyphClass: 2
Flags: HW
LayerCount: 2
Fore
SplineSet
683 0 m 1
 1081 1036 l 1
 1227 1036 l 1
 1227 1152 l 1
 782 1152 l 1
 782 1036 l 1
 923 1036 l 1
 611 184 l 1
 294 1036 l 1
 435 1036 l 1
 435 1152 l 1
 -20 1152 l 1
 -20 1036 l 1
 126 1036 l 1
 529 0 l 1
 683 0 l 1
EndSplineSet
EndChar

StartChar: W
Encoding: 87 87 107
Width: 1758
VWidth: 0
GlyphClass: 2
Flags: HW
LayerCount: 2
Fore
SplineSet
1323 0 m 1
 1633 1036 l 1
 1775 1036 l 1
 1775 1152 l 1
 1348 1152 l 1
 1348 1036 l 1
 1492 1036 l 1
 1248 210 l 1
 1007 1036 l 1
 1146 1036 l 1
 1146 1152 l 1
 627 1152 l 1
 627 1036 l 1
 767 1036 l 1
 527 210 l 1
 282 1036 l 1
 426 1036 l 1
 426 1152 l 1
 -17 1152 l 1
 -17 1036 l 1
 128 1036 l 1
 444 0 l 1
 597 0 l 1
 879 927 l 1
 1165 0 l 1
 1323 0 l 1
EndSplineSet
EndChar

StartChar: X
Encoding: 88 88 108
Width: 1150
VWidth: 0
GlyphClass: 2
Flags: HW
LayerCount: 2
Fore
SplineSet
25 1152 m 1
 25 1036 l 1
 179 1036 l 1
 488 582 l 1
 175 116 l 1
 14 116 l 1
 14 0 l 1
 475 0 l 1
 475 116 l 1
 331 116 l 1
 567 470 l 1
 803 116 l 1
 664 116 l 1
 664 0 l 1
 1136 0 l 1
 1136 116 l 1
 981 116 l 1
 653 595 l 1
 955 1036 l 1
 1106 1036 l 1
 1106 1152 l 1
 660 1152 l 1
 660 1036 l 1
 800 1036 l 1
 574 704 l 1
 352 1036 l 1
 487 1036 l 1
 487 1152 l 1
 25 1152 l 1
EndSplineSet
EndChar

StartChar: Y
Encoding: 89 89 109
Width: 1129
VWidth: 0
GlyphClass: 2
Flags: HW
LayerCount: 2
Fore
SplineSet
129 1036 m 1
 487 530 l 1
 487 116 l 1
 328 116 l 1
 328 0 l 1
 811 0 l 1
 811 116 l 1
 647 116 l 1
 647 530 l 1
 990 1036 l 1
 1146 1036 l 1
 1146 1152 l 1
 686 1152 l 1
 686 1036 l 1
 836 1036 l 1
 579 648 l 1
 305 1036 l 1
 455 1036 l 1
 455 1152 l 1
 -20 1152 l 1
 -20 1036 l 1
 129 1036 l 1
EndSplineSet
EndChar

StartChar: Z
Encoding: 90 90 112
Width: 959
VWidth: 0
GlyphClass: 2
Flags: HW
LayerCount: 2
Fore
SplineSet
910 1040 m 1
 910 1152 l 1
 78 1152 l 1
 78 832 l 1
 207 832 l 1
 207 1036 l 1
 705 1036 l 1
 48 128 l 1
 48 0 l 1
 920 0 l 1
 920 335 l 1
 791 335 l 1
 791 116 l 1
 243 116 l 1
 910 1040 l 1
EndSplineSet
EndChar

StartChar: a
Encoding: 97 97 116
Width: 929
VWidth: 0
GlyphClass: 2
Flags: HW
LayerCount: 2
Fore
SplineSet
631 0 m 1
 908 0 l 1
 908 116 l 1
 764 116 l 1
 764 537 l 2
 764 838 422 881 131 754 c 1
 160 645 l 1
 418 737 615 724 615 532 c 2
 615 458 l 1
 290 516 70 466 85 204 c 0
 99 -43 433 -85 623 85 c 1
 631 0 l 1
615 178 m 1
 456 54 236 54 225 218 c 0
 214 385 384 397 615 364 c 1
 615 178 l 1
EndSplineSet
EndChar

StartChar: acute
Encoding: 180 180 120
Width: 562
VWidth: 0
GlyphClass: 2
Flags: HW
LayerCount: 2
Fore
SplineSet
284 914 m 1
 165 914 l 1
 264 1171 l 1
 471 1171 l 1
 284 914 l 1
EndSplineSet
EndChar

StartChar: ae
Encoding: 230 230 122
Width: 1417
VWidth: 0
GlyphClass: 2
Flags: HW
LayerCount: 2
Fore
SplineSet
196 221 m 0
 196 149 256 96 327 96 c 0
 463 96 569 130 646 197 c 1
 601 356 l 1
 547 357 475 368 412 368 c 0
 268 368 196 319 196 221 c 0
1217 467 m 1
 1197 603 1133 713 998 713 c 0
 860 713 780 601 763 467 c 1
 1217 467 l 1
759 365 m 1
 777 213 848 101 998 101 c 2
 1004 101 l 2
 1101 101 1177 140 1232 217 c 1
 1360 161 l 1
 1287 38 1168 -23 1001 -23 c 0
 872 -23 767 19 687 103 c 1
 560 24 443 -16 337 -16 c 2
 332 -16 l 2
 182 -16 56 79 55 221 c 1
 55 387 171 470 402 470 c 0
 463 470 527 463 595 450 c 1
 595 547 l 2
 595 655 530 709 399 709 c 0
 315 709 253 681 214 626 c 1
 74 665 l 1
 137 773 252 827 419 827 c 0
 537 827 657 771 698 640 c 1
 779 792 903 833 1007 833 c 0
 1221 833 1360 642 1360 365 c 1
 759 365 l 1
EndSplineSet
EndChar

StartChar: ampersand
Encoding: 38 38 125
Width: 1201
VWidth: 0
GlyphClass: 2
Flags: HW
LayerCount: 2
Fore
SplineSet
494 720 m 1
 584 767 679 818 679 926 c 0
 679 1008 615 1045 532 1045 c 0
 455 1045 385 1009 385 936 c 0
 385 842 441 791 494 720 c 1
210 335 m 0
 210 199 336 116 482 116 c 0
 566 116 645 150 720 219 c 1
 438 573 l 1
 286 520 210 440 210 335 c 0
245 916 m 0
 245 1067 382 1172 534 1172 c 0
 682 1172 813 1073 813 930 c 0
 813 795 731 692 566 621 c 1
 806 332 l 1
 857 401 892 485 913 583 c 1
 1143 583 l 1
 1143 456 l 1
 1014 456 l 1
 981 355 938 278 886 223 c 1
 959 125 l 1
 1143 125 l 1
 1143 0 l 1
 883 0 l 1
 797 115 l 1
 686 26 572 -19 456 -19 c 0
 241 -19 56 117 56 325 c 0
 56 481 158 596 362 670 c 1
 284 769 245 851 245 916 c 0
EndSplineSet
EndChar

StartChar: approxequal
Encoding: 8776 8776 127
Width: 1149
VWidth: 0
GlyphClass: 2
Flags: HW
LayerCount: 2
Fore
SplineSet
539 463 m 0
 480 518 440 549 418 558 c 0
 396 567 377 571 362 571 c 0
 322 571 292 552 273 513 c 0
 254 474 240 415 233 334 c 1
 113 334 l 1
 123 443 140 518 164 562 c 0
 202 631 258 692 350 692 c 0
 461 692 531 632 592 579 c 0
 651 527 692 493 714 478 c 0
 736 463 763 455 795 455 c 0
 827 455 852 475 870 516 c 0
 888 557 902 616 911 692 c 1
 1034 692 l 1
 1022 584 1004 508 979 464 c 0
 930 377 868 334 793 334 c 0
 718 334 633 377 539 463 c 0
539 899 m 0
 495 939 461 968 438 984 c 0
 415 1000 386 1008 353 1008 c 0
 288 1008 248 929 233 770 c 1
 113 770 l 1
 123 879 140 954 164 998 c 0
 202 1067 258 1128 350 1128 c 0
 458 1128 543 1063 598 1012 c 0
 649 965 687 933 711 916 c 0
 735 899 763 891 795 891 c 0
 827 891 852 911 870 952 c 0
 888 993 902 1052 911 1128 c 1
 1034 1128 l 1
 1022 1020 1004 944 979 900 c 0
 930 813 868 770 793 770 c 0
 718 770 633 813 539 899 c 0
EndSplineSet
EndChar

StartChar: asciicircum
Encoding: 94 94 129
Width: 826
VWidth: 0
GlyphClass: 2
Flags: HW
LayerCount: 2
Fore
SplineSet
492 1171 m 1
 788 605 l 1
 637 605 l 1
 415 1040 l 1
 189 605 l 1
 38 605 l 1
 339 1171 l 1
 492 1171 l 1
EndSplineSet
EndChar

StartChar: asciitilde
Encoding: 126 126 130
Width: 1062
VWidth: 0
GlyphClass: 2
Flags: HW
LayerCount: 2
Fore
SplineSet
132 496 m 1
 77 573 l 1
 140 664 216 709 307 709 c 0
 486 709 598 573 775 573 c 0
 833 573 883 599 924 651 c 1
 987 573 l 1
 933 485 863 441 778 441 c 0
 592 441 480 578 294 578 c 0
 230 578 176 551 132 496 c 1
EndSplineSet
EndChar

StartChar: asterisk
Encoding: 42 42 131
Width: 916
VWidth: 0
GlyphClass: 2
Flags: HW
LayerCount: 2
Fore
SplineSet
282 351 m 1
 141 450 l 1
 237 582 l 1
 411 729 l 1
 183 743 l 1
 32 797 l 1
 82 960 l 1
 237 909 l 1
 437 783 l 1
 379 1013 l 1
 379 1171 l 1
 548 1171 l 1
 548 1013 l 1
 488 783 l 1
 688 909 l 1
 844 960 l 1
 894 797 l 1
 744 743 l 1
 515 729 l 1
 688 582 l 1
 783 450 l 1
 644 351 l 1
 548 483 l 1
 463 698 l 1
 379 483 l 1
 282 351 l 1
EndSplineSet
EndChar

StartChar: at
Encoding: 64 64 132
Width: 1418
VWidth: 0
GlyphClass: 2
Flags: HW
LayerCount: 2
Fore
SplineSet
707 784 m 0
 548 784 473 613 473 450 c 0
 473 338 526 250 641 250 c 0
 791 250 866 455 866 612 c 0
 866 704 798 784 707 784 c 0
337 471 m 0
 337 691 483 897 708 897 c 0
 806 897 879 847 908 766 c 1
 930 879 l 1
 1066 879 l 1
 956 369 l 2
 950 341 941 312 941 290 c 0
 941 271 948 258 970 258 c 0
 1104 258 1210 475 1210 637 c 0
 1210 893 1004 1058 730 1058 c 0
 416 1058 188 807 188 490 c 0
 188 164 407 -33 734 -33 c 0
 900 -33 1034 5 1133 81 c 1
 1202 -3 l 1
 1081 -96 932 -143 755 -143 c 0
 340 -143 54 104 54 494 c 0
 54 864 349 1172 732 1172 c 0
 1080 1172 1335 976 1335 644 c 0
 1335 384 1182 141 928 141 c 0
 861 141 833 193 826 263 c 1
 771 182 702 141 620 141 c 0
 439 141 337 279 337 471 c 0
EndSplineSet
EndChar

StartChar: backslash
Encoding: 92 92 135
Width: 793
VWidth: 0
GlyphClass: 2
Flags: HW
LayerCount: 2
Fore
SplineSet
258 1171 m 1
 692 -18 l 1
 563 -18 l 1
 129 1171 l 1
 258 1171 l 1
EndSplineSet
EndChar

StartChar: bar
Encoding: 124 124 136
Width: 404
VWidth: 0
GlyphClass: 2
Flags: HW
LayerCount: 2
Fore
SplineSet
141 -96 m 1
 141 1153 l 1
 263 1153 l 1
 263 -96 l 1
 141 -96 l 1
EndSplineSet
EndChar

StartChar: braceleft
Encoding: 123 123 137
Width: 528
VWidth: 0
GlyphClass: 2
Flags: HW
LayerCount: 2
Fore
SplineSet
327 868 m 0
 327 646 325 544 192 475 c 1
 296 419 326 325 326 166 c 0
 326 87 326 32 328 2 c 0
 333 -96 386 -103 492 -103 c 1
 492 -223 l 1
 419 -223 l 1
 416 -223 l 2
 196 -223 178 -79 178 139 c 0
 178 298 171 410 34 410 c 2
 30 410 l 1
 30 539 l 1
 155 540 178 637 178 767 c 2
 178 845 l 2
 178 1043 213 1171 414 1171 c 2
 418 1171 l 1
 492 1171 l 1
 492 1052 l 1
 335 1052 327 1015 327 868 c 0
EndSplineSet
EndChar

StartChar: braceright
Encoding: 125 125 138
Width: 528
VWidth: 0
GlyphClass: 2
Flags: HW
LayerCount: 2
Fore
SplineSet
104 1171 m 2
 324 1171 344 1052 344 806 c 0
 344 643 355 539 492 539 c 1
 492 410 l 1
 364 410 344 311 344 177 c 2
 344 90 l 2
 344 -102 305 -223 107 -223 c 2
 103 -223 l 1
 30 -223 l 1
 30 -103 l 1
 134 -103 188 -97 194 -2 c 0
 196 27 196 67 196 119 c 0
 196 314 212 412 330 475 c 1
 213 536 195 635 195 812 c 2
 195 888 l 2
 195 1015 184 1052 30 1052 c 1
 30 1171 l 1
 104 1171 l 2
EndSplineSet
EndChar

StartChar: bracketleft
Encoding: 91 91 139
Width: 569
VWidth: 0
GlyphClass: 2
Flags: HW
LayerCount: 2
Fore
SplineSet
147 1262 m 1
 541 1262 l 1
 541 1153 l 1
 290 1153 l 1
 290 -112 l 1
 541 -112 l 1
 541 -219 l 1
 147 -219 l 1
 147 1262 l 1
EndSplineSet
EndChar

StartChar: bracketright
Encoding: 93 93 140
Width: 569
VWidth: 0
GlyphClass: 2
Flags: HW
LayerCount: 2
Fore
SplineSet
32 1262 m 1
 426 1262 l 1
 426 -219 l 1
 32 -219 l 1
 32 -112 l 1
 283 -112 l 1
 283 1153 l 1
 32 1153 l 1
 32 1262 l 1
EndSplineSet
EndChar

StartChar: breve
Encoding: 728 728 141
Width: 584
VWidth: 0
GlyphClass: 2
Flags: HW
LayerCount: 2
Fore
SplineSet
38 1153 m 1
 162 1153 l 1
 174 1082 235 1047 294 1047 c 0
 353 1047 411 1082 421 1153 c 1
 546 1153 l 1
 534 1029 441 940 292 940 c 0
 154 940 48 1024 38 1153 c 1
EndSplineSet
EndChar

StartChar: brokenbar
Encoding: 166 166 142
Width: 404
VWidth: 0
GlyphClass: 2
Flags: HW
LayerCount: 2
Fore
SplineSet
263 446 m 1
 263 -18 l 1
 141 -18 l 1
 141 446 l 1
 263 446 l 1
263 1153 m 1
 263 689 l 1
 141 689 l 1
 141 1153 l 1
 263 1153 l 1
EndSplineSet
EndChar

StartChar: bullet
Encoding: 8226 8226 143
Width: 559
VWidth: 0
GlyphClass: 2
Flags: HW
LayerCount: 2
Fore
SplineSet
280 754 m 0
 388 754 481 669 481 562 c 0
 481 455 388 368 280 368 c 0
 170 368 80 452 80 562 c 0
 80 672 170 754 280 754 c 0
EndSplineSet
EndChar

StartChar: c
Encoding: 99 99 144
Width: 900
VWidth: 0
GlyphClass: 2
Flags: HW
LayerCount: 2
Fore
SplineSet
830 153 m 1
 771 272 l 1
 606 12 217 66 217 400 c 0
 217 765 658 784 702 503 c 1
 821 503 l 1
 821 805 l 1
 688 805 l 1
 697 686 l 1
 603 924 57 853 57 400 c 0
 57 -45 590 -150 830 153 c 1
EndSplineSet
EndChar

StartChar: caron
Encoding: 711 711 146
Width: 593
VWidth: 0
GlyphClass: 2
Flags: HW
LayerCount: 2
Fore
SplineSet
38 1171 m 1
 145 1171 l 1
 299 1017 l 1
 451 1171 l 1
 555 1171 l 1
 396 912 l 1
 200 912 l 1
 38 1171 l 1
EndSplineSet
EndChar

StartChar: cedilla
Encoding: 184 184 151
Width: 587
VWidth: 0
GlyphClass: 2
Flags: HW
LayerCount: 2
Fore
SplineSet
442 -218 m 0
 442 -312 349 -363 230 -363 c 0
 192 -363 158 -360 128 -355 c 1
 128 -263 l 1
 159 -268 187 -271 214 -271 c 0
 277 -271 309 -254 309 -220 c 0
 309 -186 276 -166 211 -160 c 1
 269 5 l 1
 341 5 l 1
 314 -119 l 1
 399 -129 442 -162 442 -218 c 0
EndSplineSet
EndChar

StartChar: cent
Encoding: 162 162 152
Width: 899
VWidth: 0
GlyphClass: 2
Flags: HW
LayerCount: 2
Fore
SplineSet
464 -19 m 0
 423 -19 382 -14 342 -4 c 1
 232 -320 l 1
 156 -303 l 1
 270 23 l 1
 145 85 57 224 57 400 c 0
 57 630 214 820 441 820 c 0
 485 820 520 817 545 810 c 1
 671 1171 l 1
 748 1153 l 1
 617 781 l 1
 654 760 678 737 691 713 c 1
 687 805 l 1
 820 805 l 1
 820 517 l 1
 691 517 l 1
 674 593 637 645 579 672 c 1
 385 118 l 1
 411 111 439 107 468 107 c 0
 589 107 679 153 740 246 c 1
 829 157 l 1
 752 40 630 -19 464 -19 c 0
216 384 m 0
 216 281 249 205 315 154 c 1
 503 692 l 1
 492 693 482 694 471 694 c 0
 292 694 216 573 216 384 c 0
EndSplineSet
EndChar

StartChar: circumflex
Encoding: 710 710 153
Width: 593
VWidth: 0
GlyphClass: 2
Flags: HW
LayerCount: 2
Fore
SplineSet
201 896 m 1
 58 896 l 1
 156 1171 l 1
 431 1171 l 1
 535 896 l 1
 387 896 l 1
 294 1126 l 1
 201 896 l 1
EndSplineSet
EndChar

StartChar: colon
Encoding: 58 58 154
Width: 414
VWidth: 0
GlyphClass: 2
Flags: HW
LayerCount: 2
Fore
SplineSet
93 820 m 1
 320 820 l 1
 320 609 l 1
 93 609 l 1
 93 820 l 1
93 211 m 1
 320 211 l 1
 320 0 l 1
 93 0 l 1
 93 211 l 1
EndSplineSet
EndChar

StartChar: comma
Encoding: 44 44 155
Width: 414
VWidth: 0
GlyphClass: 2
Flags: HW
LayerCount: 2
Fore
SplineSet
313 211 m 1
 313 0 l 1
 314 -162 245 -237 92 -237 c 2
 86 -237 l 1
 86 -150 l 1
 173 -132 207 -100 207 0 c 1
 86 0 l 1
 86 211 l 1
 313 211 l 1
EndSplineSet
EndChar

StartChar: copyright
Encoding: 169 169 156
Width: 1423
VWidth: 0
GlyphClass: 2
Flags: HW
LayerCount: 2
Fore
SplineSet
636 882 m 0
 716 882 794 860 817 806 c 1
 815 872 l 1
 911 872 l 1
 911 664 l 1
 817 664 l 1
 797 749 744 792 658 792 c 0
 532 792 474 708 474 580 c 0
 474 457 532 368 656 368 c 0
 745 368 811 402 853 469 c 1
 917 404 l 1
 864 319 776 277 653 277 c 2
 648 277 l 2
 466 277 359 411 359 586 c 0
 359 745 481 882 636 882 c 0
657 1077 m 0
 365 1077 174 858 174 575 c 0
 174 294 366 74 656 74 c 0
 948 74 1139 294 1141 575 c 1
 1139 857 950 1077 657 1077 c 0
58 575 m 0
 58 917 302 1171 658 1171 c 0
 1014 1171 1258 917 1258 575 c 0
 1258 233 1013 -18 658 -18 c 0
 303 -18 58 233 58 575 c 0
EndSplineSet
EndChar

StartChar: currency
Encoding: 164 164 157
Width: 929
VWidth: 0
GlyphClass: 2
Flags: HW
LayerCount: 2
Fore
SplineSet
270 802 m 0
 270 689 349 600 465 600 c 0
 582 600 658 689 658 802 c 0
 658 915 589 1006 464 1006 c 0
 344 1006 270 917 270 802 c 0
204 601 m 1
 154 661 129 730 129 808 c 0
 129 886 153 952 202 1007 c 1
 122 1088 l 1
 191 1157 l 1
 277 1071 l 1
 334 1106 396 1124 464 1124 c 0
 533 1124 595 1106 652 1069 c 1
 740 1157 l 1
 809 1088 l 1
 726 1005 l 1
 774 948 798 882 798 806 c 0
 798 730 773 662 724 603 c 1
 809 519 l 1
 740 451 l 1
 650 539 l 1
 597 504 535 486 465 486 c 0
 395 486 333 503 279 538 c 1
 191 451 l 1
 122 519 l 1
 204 601 l 1
EndSplineSet
EndChar

StartChar: dagger
Encoding: 8224 8224 159
Width: 918
VWidth: 0
GlyphClass: 2
Flags: HW
LayerCount: 2
Fore
SplineSet
846 946 m 1
 502 1004 l 1
 580 772 l 1
 528 460 502 127 502 -227 c 1
 416 -227 l 1
 416 123 391 456 342 772 c 1
 416 1004 l 1
 72 946 l 1
 72 1122 l 1
 416 1069 l 1
 362 1556 l 1
 559 1556 l 1
 502 1069 l 1
 846 1122 l 1
 846 946 l 1
EndSplineSet
EndChar

StartChar: daggerdbl
Encoding: 8225 8225 160
Width: 918
VWidth: 0
GlyphClass: 2
Flags: HW
LayerCount: 2
Fore
SplineSet
487 668 m 1
 502 554 533 483 580 455 c 1
 502 223 l 1
 846 281 l 1
 846 104 l 1
 502 158 l 1
 559 -227 l 1
 362 -227 l 1
 416 158 l 1
 72 104 l 1
 72 281 l 1
 416 223 l 1
 342 455 l 1
 387 488 417 560 430 670 c 1
 416 785 387 853 342 874 c 1
 416 1106 l 1
 72 1049 l 1
 72 1225 l 1
 416 1171 l 1
 362 1556 l 1
 559 1556 l 1
 502 1171 l 1
 846 1225 l 1
 846 1049 l 1
 502 1106 l 1
 580 874 l 1
 533 846 502 777 487 668 c 1
EndSplineSet
EndChar

StartChar: dcroat
Encoding: 273 273 162
Width: 1071
VWidth: 0
Flags: HW
LayerCount: 2
Fore
SplineSet
218 400 m 0
 218 233 321 109 488 108 c 0
 573 108 659 145 748 222 c 1
 748 567 l 1
 659 652 571 694 486 694 c 0
 319 694 218 565 218 400 c 0
588 1153 m 1
 898 1153 l 1
 898 967 l 1
 999 967 l 1
 999 882 l 1
 898 882 l 1
 898 116 l 1
 1050 116 l 1
 1050 0 l 1
 746 0 l 1
 745 99 l 1
 666 21 571 -18 460 -18 c 0
 229 -18 58 152 58 390 c 0
 58 629 218 820 454 820 c 0
 569 820 668 784 750 713 c 1
 750 882 l 1
 527 882 l 1
 527 967 l 1
 750 967 l 1
 750 1037 l 1
 588 1037 l 1
 588 1153 l 1
EndSplineSet
EndChar

StartChar: degree
Encoding: 176 176 163
Width: 653
VWidth: 0
GlyphClass: 2
Flags: HW
LayerCount: 2
Fore
SplineSet
329 1085 m 0
 237 1085 164 1014 165 923 c 0
 165 837 225 762 326 762 c 0
 414 762 488 833 488 921 c 0
 488 1010 420 1085 329 1085 c 0
327 673 m 1
 187 673 68 784 68 922 c 0
 68 1060 187 1171 327 1171 c 0
 467 1171 585 1061 585 922 c 0
 585 784 466 672 327 673 c 1
EndSplineSet
EndChar

StartChar: dieresis
Encoding: 168 168 164
Width: 572
VWidth: 0
GlyphClass: 2
Flags: HW
LayerCount: 2
Fore
SplineSet
371 1101 m 1
 523 1101 l 1
 523 948 l 1
 371 948 l 1
 371 1101 l 1
58 1101 m 1
 212 1101 l 1
 212 948 l 1
 58 948 l 1
 58 1101 l 1
EndSplineSet
EndChar

StartChar: divide
Encoding: 247 247 165
Width: 1164
VWidth: 0
GlyphClass: 2
Flags: HW
LayerCount: 2
Fore
SplineSet
931 475 m 1
 220 475 l 1
 220 593 l 1
 931 593 l 1
 931 475 l 1
501 275 m 1
 654 275 l 1
 654 121 l 1
 501 121 l 1
 501 275 l 1
501 944 m 1
 654 944 l 1
 654 792 l 1
 501 792 l 1
 501 944 l 1
EndSplineSet
EndChar

StartChar: dollar
Encoding: 36 36 166
Width: 940
VWidth: 0
GlyphClass: 2
Flags: HW
LayerCount: 2
Fore
SplineSet
411 1030 m 1
 322 1016 244 966 244 878 c 0
 244 760 314 724 411 695 c 1
 411 1030 l 1
542 117 m 1
 655 124 746 188 746 306 c 0
 746 425 655 467 542 499 c 1
 542 117 l 1
88 854 m 0
 88 1050 226 1156 411 1169 c 1
 411 1305 l 1
 542 1305 l 1
 542 1161 l 1
 605 1146 662 1118 713 1079 c 1
 713 1153 l 1
 848 1153 l 1
 848 826 l 1
 713 826 l 1
 713 908 l 1
 665 974 608 1014 542 1027 c 1
 542 662 l 1
 787 610 910 491 910 306 c 0
 910 110 741 -12 542 -17 c 1
 542 -143 l 1
 411 -143 l 1
 411 -4 l 1
 345 11 285 41 231 87 c 1
 231 0 l 1
 96 0 l 1
 96 387 l 1
 231 387 l 1
 231 271 l 1
 282 201 342 155 411 133 c 1
 411 532 l 1
 224 574 88 650 88 854 c 0
EndSplineSet
EndChar

StartChar: dotaccent
Encoding: 729 729 167
Width: 535
VWidth: 0
GlyphClass: 2
Flags: HW
LayerCount: 2
Fore
SplineSet
177 1038 m 0
 176 1088 219 1125 268 1125 c 0
 317 1125 359 1093 359 1038 c 1
 360 992 325 950 268 950 c 0
 220 950 177 990 177 1038 c 0
EndSplineSet
EndChar

StartChar: dotlessi
Encoding: 305 305 168
Width: 509
VWidth: 0
GlyphClass: 2
Flags: HW
LayerCount: 2
Fore
SplineSet
194 689 m 1
 59 689 l 1
 59 805 l 1
 343 805 l 1
 343 113 l 1
 479 113 l 1
 479 0 l 1
 59 0 l 1
 59 113 l 1
 194 113 l 1
 194 689 l 1
EndSplineSet
EndChar

StartChar: e
Encoding: 101 101 169
Width: 934
VWidth: 0
GlyphClass: 2
Flags: HW
LayerCount: 2
Back
SplineSet
482 107 m 5
 320 108 213 227 213 402 c 4
 213 576 319 694 482 694 c 4
 646 694 753 577 753 402 c 4
 753 226 645 108 482 107 c 5
482 -18 m 4
 730 -18 910 158 910 402 c 4
 910 645 732 820 484 820 c 4
 239 820 57 643 57 402 c 4
 57 157 233 -18 482 -18 c 4
EndSplineSet
Fore
SplineSet
849 154 m 1
 760 243 l 1
 593 27 213 52 213 400 c 4
 213 785 705 791 719 467 c 1
 141 467 l 1
 141 365 l 1
 861 365 l 1
 861 407 l 2
 861 993 57 924 57 400 c 0
 57 -43 607 -148 849 154 c 1
EndSplineSet
EndChar

StartChar: eight
Encoding: 56 56 177
Width: 1007
VWidth: 0
GlyphClass: 2
Flags: HW
LayerCount: 2
Fore
SplineSet
922 328 m 0
 922 99 736 -18 499 -18 c 0
 269 -18 76 96 76 315 c 0
 76 472 168 564 303 599 c 1
 174 648 109 737 109 867 c 0
 109 1067 288 1170 499 1171 c 1
 710 1170 889 1067 889 867 c 0
 889 710 808 642 695 599 c 1
 822 566 922 472 922 328 c 0
499 533 m 0
 346 533 241 468 241 326 c 0
 241 191 358 116 499 116 c 0
 640 116 757 191 757 326 c 0
 757 468 652 533 499 533 c 0
499 1037 m 0
 368 1037 264 981 264 858 c 0
 264 734 376 667 499 659 c 1
 624 666 735 726 735 854 c 0
 735 979 632 1037 499 1037 c 0
EndSplineSet
EndChar

StartChar: ellipsis
Encoding: 8230 8230 178
Width: 1242
VWidth: 0
GlyphClass: 2
Flags: HW
LayerCount: 2
Fore
SplineSet
86 211 m 1
 313 211 l 1
 313 0 l 1
 86 0 l 1
 86 211 l 1
500 211 m 1
 727 211 l 1
 727 0 l 1
 500 0 l 1
 500 211 l 1
914 211 m 1
 1141 211 l 1
 1141 0 l 1
 914 0 l 1
 914 211 l 1
EndSplineSet
EndChar

StartChar: emdash
Encoding: 8212 8212 180
Width: 1648
VWidth: 0
GlyphClass: 2
Flags: HW
LayerCount: 2
Fore
SplineSet
0 485 m 1
 1648 485 l 1
 1648 368 l 1
 0 368 l 1
 0 485 l 1
EndSplineSet
EndChar

StartChar: endash
Encoding: 8211 8211 181
Width: 874
VWidth: 0
GlyphClass: 2
Flags: HW
LayerCount: 2
Fore
SplineSet
0 485 m 1
 874 485 l 1
 874 368 l 1
 0 368 l 1
 0 485 l 1
EndSplineSet
EndChar

StartChar: equal
Encoding: 61 61 183
Width: 1145
VWidth: 0
GlyphClass: 2
Flags: HW
LayerCount: 2
Fore
SplineSet
1012 993 m 1
 1012 872 l 1
 133 872 l 1
 133 993 l 1
 1012 993 l 1
1012 590 m 1
 1012 469 l 1
 133 469 l 1
 133 590 l 1
 1012 590 l 1
EndSplineSet
EndChar

StartChar: eth
Encoding: 240 240 184
Width: 947
VWidth: 0
GlyphClass: 2
Flags: HW
LayerCount: 2
Fore
SplineSet
230 362 m 0
 230 217 308 116 460 116 c 0
 652 116 695 304 710 509 c 1
 636 564 544 592 433 592 c 0
 310 592 230 490 230 362 c 0
454 -18 m 0
 232 -18 85 144 85 362 c 0
 85 580 223 721 444 722 c 0
 557 722 648 695 716 639 c 1
 716 716 706 786 686 849 c 1
 460 804 l 1
 440 905 l 1
 640 945 l 1
 593 1012 526 1045 440 1045 c 0
 354 1045 278 1020 209 969 c 1
 154 1082 l 1
 229 1141 329 1171 455 1171 c 0
 604 1171 714 1105 785 974 c 1
 946 1006 l 1
 967 905 l 1
 825 877 l 1
 853 790 867 693 867 588 c 0
 867 247 765 -18 454 -18 c 0
EndSplineSet
EndChar

StartChar: exclam
Encoding: 33 33 185
Width: 466
VWidth: 0
GlyphClass: 2
Flags: HW
LayerCount: 2
Fore
SplineSet
277 324 m 1
 189 324 l 1
 147 821 l 1
 147 1171 l 1
 319 1171 l 1
 319 821 l 1
 277 324 l 1
127 0 m 1
 127 212 l 1
 339 212 l 1
 339 0 l 1
 127 0 l 1
EndSplineSet
EndChar

StartChar: exclamdown
Encoding: 161 161 186
Width: 466
VWidth: 0
GlyphClass: 2
Flags: HW
LayerCount: 2
Fore
SplineSet
127 959 m 1
 127 1171 l 1
 339 1171 l 1
 339 959 l 1
 127 959 l 1
189 847 m 1
 277 847 l 1
 319 350 l 1
 319 0 l 1
 147 0 l 1
 147 350 l 1
 189 847 l 1
EndSplineSet
EndChar

StartChar: f
Encoding: 102 102 187
Width: 597
VWidth: 0
GlyphClass: 2
Flags: HW
LayerCount: 2
Fore
SplineSet
64 0 m 1
 498 0 l 1
 498 116 l 1
 339 116 l 1
 339 689 l 1
 499 689 l 1
 499 805 l 1
 339 805 l 1
 339 907 l 2
 339 995 383 1035 443 1035 c 0
 491 1035 532 999 549 936 c 1
 659 969 l 1
 636 1090 562 1152 434 1152 c 0
 286 1152 188 1057 188 916 c 2
 188 805 l 1
 59 805 l 1
 59 689 l 1
 188 689 l 1
 188 116 l 1
 64 116 l 1
 64 0 l 1
EndSplineSet
EndChar

StartChar: ff
Encoding: 64256 64256 188
Width: 1092
VWidth: 0
GlyphClass: 3
Flags: HW
LayerCount: 2
Fore
SplineSet
598 0 m 1
 598 116 l 1
 722 116 l 1
 722 689 l 1
 336 689 l 1
 336 116 l 1
 495 116 l 1
 495 0 l 1
 61 0 l 1
 61 116 l 1
 185 116 l 1
 185 689 l 1
 56 689 l 1
 56 805 l 1
 185 805 l 1
 185 943 l 2
 185 1084 268 1171 416 1171 c 0
 544 1171 616 1091 616 963 c 1
 486 963 l 1
 486 1017 464 1053 416 1053 c 0
 363 1053 336 1013 336 934 c 2
 336 805 l 1
 722 805 l 1
 722 943 l 2
 722 1084 805 1171 953 1171 c 0
 1081 1171 1153 1091 1153 963 c 1
 1023 963 l 1
 1023 1017 1001 1053 953 1053 c 0
 900 1053 873 1013 873 934 c 2
 873 805 l 1
 1051 805 l 1
 1051 689 l 1
 873 689 l 1
 873 116 l 1
 1032 116 l 1
 1032 0 l 1
 598 0 l 1
EndSplineSet
Ligature2: "ligaStandardLigatureslookup0 subtable" f f
EndChar

StartChar: ffi
Encoding: 64259 64259 189
Width: 1558
VWidth: 0
GlyphClass: 2
Flags: HW
LayerCount: 2
Fore
SplineSet
723 943 m 2
 723 1084 806 1171 954 1171 c 0
 1082 1171 1154 1091 1154 963 c 1
 1024 963 l 1
 1024 1017 1002 1053 954 1053 c 0
 901 1053 874 1013 874 934 c 2
 874 805 l 1
 1408 805 l 1
 1408 116 l 1
 1544 116 l 1
 1544 0 l 1
 1153 0 l 1
 1153 116 l 1
 1259 116 l 1
 1259 689 l 1
 874 689 l 1
 874 116 l 1
 1033 116 l 1
 1033 0 l 1
 616 0 l 1
 616 116 l 1
 723 116 l 1
 723 689 l 1
 336 689 l 1
 336 116 l 1
 495 116 l 1
 495 0 l 1
 61 0 l 1
 61 116 l 1
 185 116 l 1
 185 689 l 1
 56 689 l 1
 56 805 l 1
 185 805 l 1
 185 943 l 2
 185 1084 268 1171 416 1171 c 0
 544 1171 616 1091 616 963 c 1
 486 963 l 1
 486 1017 464 1053 416 1053 c 0
 363 1053 336 1013 336 934 c 2
 336 805 l 1
 723 805 l 1
 723 943 l 2
1241 1066 m 0
 1241 1120 1279 1152 1343 1152 c 0
 1384 1152 1424 1109 1424 1066 c 0
 1424 1021 1384 979 1342 979 c 0
 1282 979 1241 1010 1241 1066 c 0
EndSplineSet
Ligature2: "ligaStandardLigatureslookup0 subtable" f f i
EndChar

StartChar: ffl
Encoding: 64260 64260 190
Width: 1548
VWidth: 0
GlyphClass: 3
Flags: HW
LayerCount: 2
Fore
SplineSet
725 992 m 1
 682 1028 601 1054 501 1054 c 0
 414 1054 336 1024 336 934 c 2
 336 805 l 1
 723 805 l 1
 723 943 l 2
 723 960 724 976 725 992 c 1
1129 0 m 1
 1129 116 l 1
 1257 116 l 1
 1257 1040 l 1
 1189 1052 1107 1058 1035 1058 c 0
 945 1058 874 1034 874 934 c 2
 874 805 l 1
 1034 805 l 1
 1034 689 l 1
 874 689 l 1
 874 116 l 1
 1033 116 l 1
 1033 0 l 1
 599 0 l 1
 599 116 l 1
 723 116 l 1
 723 689 l 1
 336 689 l 1
 336 116 l 1
 495 116 l 1
 495 0 l 1
 61 0 l 1
 61 116 l 1
 185 116 l 1
 185 689 l 1
 56 689 l 1
 56 805 l 1
 185 805 l 1
 185 943 l 2
 185 1106 346 1172 512 1172 c 0
 612 1172 715 1145 779 1099 c 1
 839 1159 941 1174 1056 1174 c 0
 1171 1174 1340 1154 1406 1142 c 1
 1406 116 l 1
 1547 116 l 1
 1547 0 l 1
 1129 0 l 1
EndSplineSet
Ligature2: "ligaStandardLigatureslookup0 subtable" f f l
EndChar

StartChar: five
Encoding: 53 53 191
Width: 947
VWidth: 0
GlyphClass: 2
Flags: HW
LayerCount: 2
Fore
SplineSet
452 109 m 0
 625 109 714 200 714 366 c 0
 714 515 627 625 485 625 c 0
 396 625 313 587 238 512 c 1
 155 557 l 1
 155 1153 l 1
 800 1153 l 1
 800 916 l 1
 662 916 l 1
 662 1037 l 1
 283 1037 l 1
 272 913 263 776 254 651 c 1
 308 726 390 764 502 764 c 0
 725 764 873 595 873 370 c 0
 873 134 724 -18 484 -18 c 0
 243 -18 108 106 92 329 c 1
 235 330 l 1
 256 213 327 109 452 109 c 0
EndSplineSet
EndChar

StartChar: fj
Encoding: 65536 -1 192
Width: 971
VWidth: 0
GlyphClass: 2
Flags: HW
LayerCount: 2
Fore
SplineSet
61 0 m 1
 61 116 l 1
 185 116 l 1
 185 689 l 1
 56 689 l 1
 56 805 l 1
 185 805 l 1
 185 943 l 2
 185 1084 268 1171 416 1171 c 0
 544 1171 616 1091 616 963 c 1
 486 963 l 1
 486 1017 464 1053 416 1053 c 0
 363 1053 336 1013 336 934 c 2
 336 805 l 1
 861 805 l 1
 861 19 l 2
 861 -221 799 -303 578 -303 c 2
 487 -303 l 1
 487 -179 l 1
 594 -179 l 2
 692 -179 710 -113 710 -8 c 2
 710 689 l 1
 336 689 l 1
 336 116 l 1
 495 116 l 1
 495 0 l 1
 61 0 l 1
782 1153 m 0
 833 1153 874 1116 874 1066 c 0
 874 1016 833 979 782 979 c 0
 731 979 690 1016 690 1066 c 0
 690 1116 731 1153 782 1153 c 0
EndSplineSet
Ligature2: "ligaStandardLigatureslookup0 subtable" f j
EndChar

StartChar: florin
Encoding: 402 402 193
Width: 916
VWidth: 0
GlyphClass: 2
Flags: HW
LayerCount: 2
Fore
SplineSet
698 1172 m 0
 814 1172 916 1125 916 939 c 1
 783 939 l 1
 783 1040 757 1090 705 1090 c 0
 607 1090 585 992 565 892 c 2
 532 720 l 1
 744 720 l 1
 727 636 l 1
 514 636 l 1
 401 60 l 2
 354 -183 267 -320 52 -320 c 0
 12 -320 -23 -316 -54 -307 c 1
 -36 -223 l 1
 4 -231 33 -235 52 -235 c 0
 180 -235 212 -85 241 61 c 2
 355 636 l 1
 190 636 l 1
 207 720 l 1
 369 720 l 1
 400 879 l 1
 433 1042 517 1172 698 1172 c 0
EndSplineSet
EndChar

StartChar: four
Encoding: 52 52 194
Width: 875
VWidth: 0
GlyphClass: 2
Flags: HW
LayerCount: 2
Fore
SplineSet
24 315 m 1
 24 436 l 1
 487 1153 l 1
 625 1153 l 1
 625 436 l 1
 815 436 l 1
 815 315 l 1
 625 315 l 1
 625 116 l 1
 774 116 l 1
 774 0 l 1
 319 0 l 1
 319 116 l 1
 483 116 l 1
 483 315 l 1
 24 315 l 1
168 436 m 1
 483 436 l 1
 483 947 l 1
 168 436 l 1
EndSplineSet
EndChar

StartChar: fraction
Encoding: 8260 8260 195
Width: 793
VWidth: 0
GlyphClass: 2
Flags: HW
LayerCount: 2
Fore
SplineSet
129 -18 m 1
 563 1171 l 1
 692 1171 l 1
 258 -18 l 1
 129 -18 l 1
EndSplineSet
EndChar

StartChar: g
Encoding: 103 103 196
Width: 1024
VWidth: 0
GlyphClass: 2
Flags: HW
LayerCount: 2
Fore
SplineSet
166 -271 m 1
 458 -406 863 -348 863 -21 c 2
 863 689 l 1
 1014 689 l 1
 1014 805 l 1
 713 805 l 1
 713 -45 l 2
 713 -248 395 -253 213 -161 c 1
 166 -271 l 1
EndSplineSet
Refer: 236 -1 N 1 0 0 0.980743 0 16 2
EndChar

StartChar: germandbls
Encoding: 223 223 201
Width: 1114
VWidth: 0
GlyphClass: 2
Flags: HW
LayerCount: 2
Fore
SplineSet
362 116 m 1
 493 116 l 1
 493 0 l 1
 72 0 l 1
 72 116 l 1
 222 116 l 1
 222 786 l 2
 222 1029 343 1171 585 1171 c 0
 777 1171 924 1071 925 889 c 0
 925 760 866 678 748 641 c 1
 950 608 1102 459 1012 208 c 0
 960 64 815 0 613 0 c 1
 613 116 l 1
 797 116 889 193 889 346 c 0
 890 501 757 571 573 569 c 1
 573 675 l 1
 702 675 782 753 782 874 c 0
 782 983 706 1047 596 1047 c 0
 440 1047 362 961 362 790 c 2
 362 116 l 1
EndSplineSet
EndChar

StartChar: grave
Encoding: 96 96 202
Width: 562
VWidth: 0
GlyphClass: 2
Flags: HW
LayerCount: 2
Fore
SplineSet
411 914 m 1
 292 914 l 1
 105 1171 l 1
 312 1171 l 1
 411 914 l 1
EndSplineSet
EndChar

StartChar: greater
Encoding: 62 62 203
Width: 1145
VWidth: 0
GlyphClass: 2
Flags: HW
LayerCount: 2
Fore
SplineSet
133 225 m 1
 133 362 l 1
 821 731 l 1
 133 1104 l 1
 133 1241 l 1
 1012 768 l 1
 1012 696 l 1
 133 225 l 1
EndSplineSet
EndChar

StartChar: greaterequal
Encoding: 8805 8805 204
Width: 1145
VWidth: 0
GlyphClass: 2
Flags: HW
LayerCount: 2
Fore
SplineSet
1012 696 m 1
 133 225 l 1
 133 362 l 1
 821 731 l 1
 133 1104 l 1
 133 1241 l 1
 1012 768 l 1
 1012 696 l 1
1012 121 m 1
 1012 0 l 1
 133 0 l 1
 133 121 l 1
 1012 121 l 1
EndSplineSet
EndChar

StartChar: guillemotleft
Encoding: 171 171 205
Width: 1053
VWidth: 0
GlyphClass: 2
Flags: HW
LayerCount: 2
Fore
SplineSet
504 586 m 1
 817 942 l 1
 920 942 l 1
 713 553 l 1
 920 164 l 1
 817 164 l 1
 504 520 l 1
 504 586 l 1
133 586 m 1
 446 942 l 1
 549 942 l 1
 342 553 l 1
 549 164 l 1
 446 164 l 1
 133 520 l 1
 133 586 l 1
EndSplineSet
EndChar

StartChar: guillemotright
Encoding: 187 187 206
Width: 1053
VWidth: 0
GlyphClass: 2
Flags: HW
LayerCount: 2
Fore
SplineSet
549 520 m 1
 236 164 l 1
 133 164 l 1
 340 553 l 1
 133 942 l 1
 236 942 l 1
 549 586 l 1
 549 520 l 1
920 520 m 1
 606 164 l 1
 504 164 l 1
 711 553 l 1
 504 942 l 1
 606 942 l 1
 920 586 l 1
 920 520 l 1
EndSplineSet
EndChar

StartChar: guilsinglleft
Encoding: 8249 8249 207
Width: 682
VWidth: 0
GlyphClass: 2
Flags: HW
LayerCount: 2
Fore
SplineSet
133 586 m 1
 446 942 l 1
 549 942 l 1
 342 553 l 1
 549 164 l 1
 446 164 l 1
 133 520 l 1
 133 586 l 1
EndSplineSet
EndChar

StartChar: guilsinglright
Encoding: 8250 8250 208
Width: 682
VWidth: 0
GlyphClass: 2
Flags: HW
LayerCount: 2
Fore
SplineSet
551 520 m 1
 238 164 l 1
 135 164 l 1
 342 553 l 1
 135 942 l 1
 238 942 l 1
 551 586 l 1
 551 520 l 1
EndSplineSet
EndChar

StartChar: hbar
Encoding: 295 295 210
Width: 1024
VWidth: 0
GlyphClass: 2
Flags: HW
LayerCount: 2
Fore
SplineSet
173 882 m 1
 46 882 l 1
 46 967 l 1
 173 967 l 1
 173 1037 l 1
 23 1037 l 1
 23 1153 l 1
 322 1153 l 1
 322 967 l 1
 462 967 l 1
 462 882 l 1
 322 882 l 1
 322 726 l 1
 417 789 518 820 626 820 c 0
 796 820 881 732 881 556 c 2
 881 116 l 1
 1025 116 l 1
 1025 0 l 1
 631 0 l 1
 631 116 l 1
 733 116 l 1
 733 528 l 2
 733 639 686 694 592 694 c 0
 498 694 409 665 322 607 c 1
 322 116 l 1
 467 116 l 1
 467 0 l 1
 21 0 l 1
 21 116 l 1
 173 116 l 1
 173 882 l 1
EndSplineSet
EndChar

StartChar: hungarumlaut
Encoding: 733 733 212
Width: 587
VWidth: 0
GlyphClass: 2
Flags: HW
LayerCount: 2
Fore
SplineSet
382 899 m 1
 287 899 l 1
 377 1171 l 1
 567 1171 l 1
 382 899 l 1
121 899 m 1
 25 899 l 1
 116 1171 l 1
 306 1171 l 1
 121 899 l 1
EndSplineSet
EndChar

StartChar: hyphen
Encoding: 45 45 213
Width: 719
VWidth: 0
GlyphClass: 2
Flags: HW
LayerCount: 2
Fore
SplineSet
618 484 m 1
 618 340 l 1
 101 340 l 1
 101 484 l 1
 618 484 l 1
EndSplineSet
EndChar

StartChar: i
Encoding: 105 105 214
Width: 565
VWidth: 0
GlyphClass: 2
Flags: HW
LayerCount: 2
Fore
SplineSet
279 951 m 2
 342 951 386 988 386 1053 c 0
 386 1116 346 1153 279 1153 c 2
 277 1153 l 2
 210 1153 171 1116 171 1053 c 0
 171 988 215 951 277 951 c 2
 279 951 l 2
EndSplineSet
Refer: 241 -1 N 1 0 0 1 6 0 2
EndChar

StartChar: infinity
Encoding: 8734 8734 222
Width: 1448
VWidth: 0
GlyphClass: 2
Flags: HW
LayerCount: 2
Fore
SplineSet
382 866 m 0
 255 866 186 730 186 596 c 0
 186 475 224 394 300 352 c 1
 325 337 359 330 400 330 c 0
 488 330 572 419 651 598 c 1
 614 687 574 753 532 798 c 0
 490 843 440 866 382 866 c 0
1264 594 m 0
 1264 727 1191 860 1066 860 c 0
 1010 860 961 838 920 794 c 0
 879 750 838 682 797 592 c 1
 835 503 875 436 916 391 c 0
 957 346 1007 324 1066 324 c 0
 1196 324 1264 456 1264 594 c 0
72 592 m 0
 72 804 189 990 393 989 c 0
 536 989 651 908 737 745 c 1
 821 904 929 983 1061 983 c 0
 1260 983 1376 806 1376 598 c 0
 1376 391 1258 201 1059 201 c 0
 920 201 804 284 711 451 c 1
 626 288 520 207 393 207 c 0
 190 207 72 380 72 592 c 0
EndSplineSet
EndChar

StartChar: integral
Encoding: 8747 8747 223
Width: 883
VWidth: 0
GlyphClass: 2
Flags: HW
LayerCount: 2
Fore
SplineSet
157 -106 m 1
 158 -195 171 -237 245 -237 c 0
 294 -237 324 -190 336 -95 c 0
 345 -29 350 102 350 297 c 0
 350 492 352 636 359 727 c 1
 378 1022 473 1170 643 1171 c 0
 774 1171 839 1131 839 1052 c 0
 839 989 797 958 712 958 c 1
 712 1035 701 1087 641 1087 c 0
 613 1087 592 1074 578 1050 c 0
 564 1026 550 978 538 904 c 0
 526 830 520 719 520 571 c 0
 520 326 525 248 508 66 c 1
 495 -60 467 -156 424 -222 c 0
 381 -288 311 -320 216 -320 c 0
 93 -320 31 -280 31 -201 c 0
 31 -138 73 -106 157 -106 c 1
EndSplineSet
EndChar

StartChar: j
Encoding: 106 106 226
Width: 442
VWidth: 0
GlyphClass: 2
Flags: HW
LayerCount: 2
Fore
SplineSet
249 951 m 2
 312 951 356 988 356 1053 c 0
 356 1116 316 1153 249 1153 c 2
 247 1153 l 2
 180 1153 141 1116 141 1053 c 0
 141 988 185 951 247 951 c 2
 249 951 l 2
181 -8 m 2
 181 689 l 1
 29 689 l 1
 29 805 l 1
 332 805 l 1
 332 19 l 2
 332 -221 270 -303 49 -303 c 2
 -42 -303 l 1
 -42 -179 l 1
 65 -179 l 2
 163 -179 181 -113 181 -8 c 2
EndSplineSet
EndChar

StartChar: k
Encoding: 107 107 228
Width: 989
VWidth: 0
GlyphClass: 2
Flags: HW
LayerCount: 2
Fore
SplineSet
333 416 m 1
 686 116 l 1
 595 116 l 1
 595 0 l 1
 981 0 l 1
 981 116 l 1
 867 116 l 1
 510 420 l 1
 814 689 l 1
 944 689 l 1
 944 805 l 1
 473 805 l 5
 473 689 l 5
 635 689 l 1
 333 416 l 1
EndSplineSet
Refer: 233 -1 N 1 0 0 1 -11 0 2
EndChar

StartChar: kgreenlandic
Encoding: 312 312 230
Width: 995
VWidth: 0
GlyphClass: 2
Flags: HW
LayerCount: 2
Fore
SplineSet
173 689 m 1
 20 689 l 1
 20 805 l 1
 321 805 l 1
 321 420 l 1
 650 689 l 1
 511 689 l 1
 511 805 l 1
 958 805 l 1
 958 689 l 1
 826 689 l 1
 494 405 l 1
 836 116 l 1
 966 116 l 1
 966 0 l 1
 545 0 l 1
 545 116 l 1
 651 116 l 1
 321 395 l 1
 321 116 l 1
 426 116 l 1
 426 0 l 1
 20 0 l 1
 20 116 l 1
 173 116 l 1
 173 689 l 1
EndSplineSet
EndChar

StartChar: lc_ascender_stem
Encoding: 65537 -1 233
Width: 561
VWidth: 0
Flags: HW
LayerCount: 2
Fore
SplineSet
504 116 m 1
 355 116 l 1
 355 1153 l 1
 57 1153 l 1
 57 1037 l 1
 206 1037 l 1
 206 116 l 1
 62 116 l 1
 62 0 l 1
 504 0 l 1
 504 116 l 1
EndSplineSet
EndChar

StartChar: lc_ascender_stem_1
Encoding: 65538 -1 234
Width: 1061
VWidth: 0
Flags: HW
LayerCount: 2
Fore
SplineSet
312 0 m 1
 327 191 l 1
 327 1153 l 1
 33 1153 l 1
 33 1037 l 1
 176 1037 l 1
 176 116 l 1
 42 116 l 1
 42 0 l 1
 312 0 l 1
EndSplineSet
EndChar

StartChar: lc_ascender_stem_2
Encoding: 65539 -1 235
Width: 1055
VWidth: 0
Flags: HW
LayerCount: 2
Fore
SplineSet
1034 0 m 1
 1034 116 l 1
 882 116 l 1
 882 1153 l 1
 572 1153 l 1
 572 1037 l 1
 734 1037 l 1
 734 199 l 1
 750 0 l 1
 1034 0 l 1
EndSplineSet
EndChar

StartChar: lc_bowl_left
Encoding: 65540 -1 236
Width: 862
VWidth: 0
Flags: HW
LayerCount: 2
Fore
SplineSet
765 182 m 1
 765 305 l 1
 607 47 213 2 213 404 c 0
 213 718 503 799 765 530 c 1
 765 618 l 1
 593 934 57 889 57 404 c 0
 57 -115 613 -113 765 182 c 1
EndSplineSet
EndChar

StartChar: lc_bowl_right
Encoding: 65541 -1 237
Width: 1061
VWidth: 0
Flags: HW
LayerCount: 2
Fore
SplineSet
256 181 m 1
 428 -135 964 -79 964 406 c 0
 964 925 414 912 256 617 c 1
 256 494 l 1
 420 752 808 808 808 406 c 0
 808 92 532 0 256 269 c 1
 256 181 l 1
EndSplineSet
EndChar

StartChar: lc_descender_stem
Encoding: 65542 -1 238
Width: 1017
VWidth: 0
Flags: HW
LayerCount: 2
Fore
SplineSet
457 -336 m 1
 457 -212 l 1
 292 -212 l 1
 292 588 l 1
 284 805 l 1
 -8 805 l 1
 -8 689 l 1
 145 689 l 1
 145 -212 l 1
 -8 -212 l 1
 -8 -336 l 1
 457 -336 l 1
EndSplineSet
EndChar

StartChar: lc_descender_stem_1
Encoding: 65543 -1 239
Width: 1017
VWidth: 0
Flags: HW
LayerCount: 2
Fore
SplineSet
-7 -336 m 1
 -7 -212 l 1
 145 -212 l 1
 145 588 l 1
 153 805 l 1
 445 805 l 1
 445 689 l 1
 292 689 l 1
 292 -212 l 1
 458 -212 l 1
 458 -336 l 1
 -7 -336 l 1
EndSplineSet
EndChar

StartChar: lc_xheight_curved_stem
Encoding: 65544 -1 240
Width: 1031
VWidth: 0
Flags: HW
LayerCount: 2
Fore
SplineSet
287 520 m 1
 556 775 727 727 727 527 c 2
 727 116 l 1
 612 116 l 1
 612 0 l 1
 1019 0 l 1
 1019 116 l 1
 875 116 l 1
 875 562 l 2
 875 891 500 895 287 629 c 1
 287 520 l 1
EndSplineSet
EndChar

StartChar: lc_xheight_stem
Encoding: 65545 -1 241
Width: 1031
VWidth: 0
Flags: HW
LayerCount: 2
Fore
SplineSet
206 689 m 1
 206 116 l 1
 54 116 l 1
 54 0 l 1
 502 0 l 1
 502 116 l 1
 357 116 l 1
 357 648 l 1
 348 805 l 1
 54 805 l 1
 54 689 l 1
 206 689 l 1
EndSplineSet
EndChar

StartChar: less
Encoding: 60 60 245
Width: 1145
VWidth: 0
GlyphClass: 2
Flags: HW
LayerCount: 2
Fore
SplineSet
133 696 m 1
 133 768 l 1
 1012 1241 l 1
 1012 1104 l 1
 324 731 l 1
 1012 362 l 1
 1012 225 l 1
 133 696 l 1
EndSplineSet
EndChar

StartChar: lessequal
Encoding: 8804 8804 246
Width: 1145
VWidth: 0
GlyphClass: 2
Flags: HW
LayerCount: 2
Fore
SplineSet
1012 225 m 1
 133 696 l 1
 133 768 l 1
 1012 1241 l 1
 1012 1104 l 1
 324 731 l 1
 1012 362 l 1
 1012 225 l 1
133 0 m 1
 133 121 l 1
 1012 121 l 1
 1012 0 l 1
 133 0 l 1
EndSplineSet
EndChar

StartChar: logicalnot
Encoding: 172 172 247
Width: 1113
VWidth: 0
GlyphClass: 2
Flags: HW
LayerCount: 2
Fore
SplineSet
56 842 m 1
 993 842 l 1
 993 304 l 1
 876 304 l 1
 876 724 l 1
 56 724 l 1
 56 842 l 1
EndSplineSet
EndChar

StartChar: lozenge
Encoding: 9674 9674 248
Width: 1122
VWidth: 0
GlyphClass: 2
Flags: HW
LayerCount: 2
Fore
SplineSet
1061 731 m 1
 602 0 l 1
 520 0 l 1
 61 729 l 1
 520 1462 l 1
 602 1462 l 1
 1061 731 l 1
913 731 m 1
 563 1309 l 1
 209 731 l 1
 563 147 l 1
 913 731 l 1
EndSplineSet
EndChar

StartChar: lslash
Encoding: 322 322 249
Width: 487
VWidth: 0
GlyphClass: 2
Flags: HW
LayerCount: 2
Fore
SplineSet
173 1037 m 1
 24 1037 l 1
 24 1153 l 1
 322 1153 l 1
 322 690 l 1
 472 748 l 1
 472 612 l 1
 322 556 l 1
 322 116 l 1
 455 116 l 1
 455 0 l 1
 21 0 l 1
 21 116 l 1
 173 116 l 1
 173 501 l 1
 36 450 l 1
 36 579 l 1
 173 632 l 1
 173 1037 l 1
EndSplineSet
EndChar

StartChar: macron
Encoding: 175 175 251
Width: 593
VWidth: 0
GlyphClass: 2
Flags: HW
LayerCount: 2
Fore
SplineSet
101 1063 m 1
 101 1171 l 1
 477 1171 l 1
 477 1063 l 1
 101 1063 l 1
EndSplineSet
EndChar

StartChar: minus
Encoding: 8722 8722 252
Width: 931
VWidth: 0
GlyphClass: 2
Flags: HW
LayerCount: 2
Fore
SplineSet
56 842 m 1
 876 842 l 1
 876 724 l 1
 56 724 l 1
 56 842 l 1
EndSplineSet
EndChar

StartChar: multiply
Encoding: 215 215 253
Width: 929
VWidth: 0
GlyphClass: 2
Flags: HW
LayerCount: 2
Fore
SplineSet
180 644 m 1
 263 727 l 1
 473 517 l 1
 684 727 l 1
 767 644 l 1
 556 434 l 1
 767 225 l 1
 683 143 l 1
 473 352 l 1
 264 143 l 1
 180 225 l 1
 390 434 l 1
 180 644 l 1
EndSplineSet
EndChar

StartChar: nine
Encoding: 57 57 258
Width: 949
VWidth: 0
GlyphClass: 2
Flags: HW
LayerCount: 2
Fore
SplineSet
78 791 m 0
 78 1011 223 1171 447 1171 c 0
 754 1171 860 913 860 582 c 0
 860 241 720 -18 455 -18 c 0
 246 -18 104 104 98 305 c 1
 235 305 l 1
 251 197 312 106 442 106 c 0
 620 106 709 248 709 534 c 1
 640 465 549 430 436 430 c 0
 215 430 78 572 78 791 c 0
703 694 m 1
 682 905 630 1036 455 1036 c 0
 307 1036 223 937 223 791 c 0
 223 666 296 572 432 572 c 0
 540 572 653 637 703 694 c 1
EndSplineSet
EndChar

StartChar: notequal
Encoding: 8800 8800 259
Width: 1145
VWidth: 0
GlyphClass: 2
Flags: HW
LayerCount: 2
Fore
SplineSet
133 993 m 1
 580 993 l 1
 637 1212 l 1
 756 1212 l 1
 698 993 l 1
 1012 993 l 1
 1012 872 l 1
 668 872 l 1
 594 590 l 1
 1012 590 l 1
 1012 469 l 1
 563 469 l 1
 508 250 l 1
 387 250 l 1
 444 469 l 1
 133 469 l 1
 133 590 l 1
 475 590 l 1
 549 872 l 1
 133 872 l 1
 133 993 l 1
EndSplineSet
EndChar

StartChar: numbersign
Encoding: 35 35 261
Width: 1186
VWidth: 0
GlyphClass: 2
Flags: HW
LayerCount: 2
Fore
SplineSet
122 844 m 1
 333 844 l 1
 367 1171 l 1
 490 1171 l 1
 456 844 l 1
 781 844 l 1
 819 1171 l 1
 942 1171 l 1
 905 844 l 1
 1102 844 l 1
 1090 733 l 1
 889 733 l 1
 860 442 l 1
 1082 442 l 1
 1070 333 l 1
 844 333 l 1
 809 0 l 1
 688 0 l 1
 719 333 l 1
 392 333 l 1
 357 0 l 1
 236 0 l 1
 268 333 l 1
 90 333 l 1
 102 442 l 1
 284 442 l 1
 317 733 l 1
 110 733 l 1
 122 844 l 1
439 733 m 1
 408 442 l 1
 735 442 l 1
 765 733 l 1
 439 733 l 1
EndSplineSet
EndChar

StartChar: o
Encoding: 111 111 262
Width: 967
VWidth: 0
GlyphClass: 2
Flags: HW
LayerCount: 2
Fore
SplineSet
483 -18 m 3
 233 -18 57 157 57 402 c 3
 57 643 239 820 483 820 c 3
 727 820 909 643 909 402 c 3
 909 157 733 -18 483 -18 c 3
483 694 m 3
 319 694 213 576 213 402 c 3
 213 227 320 107 483 107 c 3
 646 107 753 227 753 402 c 3
 753 576 647 694 483 694 c 3
EndSplineSet
EndChar

StartChar: oe
Encoding: 339 339 267
Width: 1648
VWidth: 0
GlyphClass: 2
Flags: HW
LayerCount: 2
Fore
SplineSet
910 365 m 1
 918 209 1028 107 1192 107 c 0
 1299 107 1406 157 1458 233 c 1
 1560 157 l 1
 1484 40 1362 -18 1193 -18 c 0
 1021 -18 903 64 833 172 c 1
 752 45 635 -18 482 -18 c 0
 235 -18 57 159 57 402 c 0
 56 645 236 820 484 820 c 0
 651 820 767 736 834 630 c 1
 901 732 1023 820 1182 820 c 0
 1446 820 1588 627 1589 365 c 1
 910 365 l 1
750 401 m 0
 750 566 646 694 482 694 c 0
 319 694 216 565 216 401 c 0
 216 236 320 108 482 107 c 1
 645 108 750 235 750 401 c 0
914 467 m 1
 1445 467 l 1
 1429 598 1337 694 1191 694 c 0
 1035 694 937 611 914 467 c 1
EndSplineSet
EndChar

StartChar: ogonek
Encoding: 731 731 268
Width: 587
VWidth: 0
GlyphClass: 2
Flags: HW
LayerCount: 2
Fore
SplineSet
197 0 m 1
 311 0 l 1
 281 -41 266 -83 266 -126 c 0
 266 -197 299 -233 364 -233 c 0
 393 -233 422 -226 451 -213 c 1
 451 -316 l 1
 400 -341 358 -353 326 -353 c 0
 215 -353 137 -285 137 -176 c 0
 137 -123 157 -65 197 0 c 1
EndSplineSet
EndChar

StartChar: one
Encoding: 49 49 272
Width: 584
VWidth: 0
GlyphClass: 2
Flags: HW
LayerCount: 2
Fore
SplineSet
380 116 m 1
 534 116 l 1
 534 0 l 1
 65 0 l 1
 65 116 l 1
 231 116 l 1
 231 1037 l 1
 57 1037 l 1
 57 1153 l 1
 380 1153 l 1
 380 116 l 1
EndSplineSet
EndChar

StartChar: onehalf
Encoding: 189 189 273
Width: 1690
VWidth: 0
GlyphClass: 2
Flags: HW
LayerCount: 2
Fore
SplineSet
1590 624 m 0
 1590 368 1190 302 1141 86 c 1
 1492 86 l 1
 1492 266 l 1
 1586 266 l 1
 1586 -15 l 1
 1020 -15 l 1
 1020 120 1077 235 1191 328 c 0
 1291 410 1466 489 1466 621 c 0
 1466 710 1413 755 1308 755 c 0
 1179 754 1149 679 1149 539 c 1
 1042 539 l 1
 1042 750 1130 856 1307 856 c 0
 1473 856 1590 773 1590 624 c 0
63 392 m 1
 186 392 l 1
 186 1059 l 1
 57 1059 l 1
 57 1153 l 1
 297 1153 l 1
 297 392 l 1
 411 392 l 1
 411 299 l 1
 63 299 l 1
 63 392 l 1
915 1170 m 1
 1004 1170 l 1
 590 0 l 1
 500 0 l 1
 915 1170 l 1
EndSplineSet
EndChar

StartChar: onequarter
Encoding: 188 188 274
Width: 1665
VWidth: 0
GlyphClass: 2
Flags: HW
LayerCount: 2
Fore
SplineSet
1313 352 m 1
 1313 765 l 1
 1059 352 l 1
 1313 352 l 1
1548 94 m 1
 1548 0 l 1
 1181 0 l 1
 1181 94 l 1
 1313 94 l 1
 1313 254 l 1
 942 254 l 1
 942 352 l 1
 1316 931 l 1
 1428 931 l 1
 1428 352 l 1
 1581 352 l 1
 1581 254 l 1
 1428 254 l 1
 1428 94 l 1
 1548 94 l 1
63 392 m 1
 186 392 l 1
 186 1059 l 1
 57 1059 l 1
 57 1153 l 1
 297 1153 l 1
 297 392 l 1
 411 392 l 1
 411 299 l 1
 63 299 l 1
 63 392 l 1
915 1170 m 1
 1004 1170 l 1
 590 0 l 1
 500 0 l 1
 915 1170 l 1
EndSplineSet
EndChar

StartChar: ordfeminine
Encoding: 170 170 275
Width: 696
VWidth: 0
GlyphClass: 2
Flags: HW
LayerCount: 2
Fore
SplineSet
142 717 m 0
 142 657 191 622 257 622 c 0
 332 622 393 644 442 689 c 1
 442 820 l 1
 402 820 352 832 305 832 c 0
 196 832 142 794 142 717 c 0
36 709 m 0
 36 854 133 908 271 908 c 0
 335 908 392 903 442 893 c 1
 442 966 l 2
 442 1043 395 1082 302 1082 c 0
 229 1082 176 1059 141 1014 c 1
 72 1087 l 1
 128 1143 203 1172 298 1172 c 0
 459 1172 554 1114 554 971 c 2
 554 640 l 1
 662 640 l 1
 662 555 l 1
 454 555 l 1
 453 617 l 1
 380 566 311 540 246 540 c 2
 244 540 l 2
 133 540 36 608 36 709 c 0
EndSplineSet
EndChar

StartChar: ordmasculine
Encoding: 186 186 276
Width: 704
VWidth: 0
GlyphClass: 2
Flags: HW
LayerCount: 2
Fore
SplineSet
353 643 m 2
 351 643 l 2
 196 643 68 754 68 907 c 0
 68 1063 197 1170 353 1171 c 1
 510 1171 637 1062 637 907 c 0
 637 753 510 643 353 643 c 2
352 1074 m 0
 255 1074 180 1003 180 907 c 0
 180 810 256 738 353 738 c 0
 449 738 524 810 524 907 c 0
 524 1003 448 1074 352 1074 c 0
EndSplineSet
EndChar

StartChar: oslash
Encoding: 248 248 277
Width: 966
VWidth: 0
GlyphClass: 2
Flags: HW
LayerCount: 2
Fore
SplineSet
575 678 m 1
 546 689 513 694 476 694 c 0
 311 694 216 560 216 388 c 0
 216 295 248 221 312 166 c 1
 575 678 l 1
663 624 m 1
 404 117 l 1
 427 110 456 107 491 107 c 0
 651 107 750 241 750 407 c 0
 750 496 721 569 663 624 c 1
910 414 m 0
 910 160 746 -18 496 -18 c 0
 440 -18 389 -12 344 1 c 1
 279 -126 l 1
 185 -83 l 1
 249 43 l 1
 145 107 57 233 57 388 c 0
 57 644 228 820 484 820 c 0
 539 820 589 812 635 796 c 1
 702 926 l 1
 796 883 l 1
 728 751 l 1
 828 687 910 566 910 414 c 0
EndSplineSet
EndChar

StartChar: paragraph
Encoding: 182 182 280
Width: 1096
VWidth: 0
GlyphClass: 2
Flags: HW
LayerCount: 2
Fore
SplineSet
50 812 m 0
 50 1036 214 1171 451 1171 c 2
 1020 1171 l 1
 1020 1037 l 1
 882 1037 l 1
 882 -320 l 1
 747 -320 l 1
 747 1037 l 1
 546 1037 l 1
 546 -320 l 1
 411 -320 l 1
 411 453 l 1
 198 459 50 599 50 812 c 0
EndSplineSet
EndChar

StartChar: parenleft
Encoding: 40 40 281
Width: 522
VWidth: 0
GlyphClass: 2
Flags: HW
LayerCount: 2
Fore
SplineSet
34 518 m 0
 34 858 228 1062 476 1165 c 1
 476 1037 l 1
 289 925 195 752 195 517 c 0
 195 280 289 108 476 -1 c 1
 476 -132 l 1
 215 -25 34 175 34 518 c 0
EndSplineSet
EndChar

StartChar: parenright
Encoding: 41 41 282
Width: 522
VWidth: 0
GlyphClass: 2
Flags: HW
LayerCount: 2
Fore
SplineSet
476 518 m 0
 476 179 281 -31 34 -132 c 1
 34 -1 l 1
 221 108 315 280 315 517 c 0
 315 752 221 925 34 1037 c 1
 34 1165 l 1
 297 1056 476 859 476 518 c 0
EndSplineSet
EndChar

StartChar: partialdiff
Encoding: 8706 8706 283
Width: 816
VWidth: 0
GlyphClass: 2
Flags: HW
LayerCount: 2
Fore
SplineSet
223 255 m 1
 223 138 270 79 364 79 c 1
 429 78 486 121 536 207 c 0
 586 293 618 395 633 512 c 1
 616 583 582 631 530 656 c 0
 513 664 492 668 468 668 c 0
 444 668 419 661 395 648 c 0
 332 613 283 540 250 430 c 0
 233 370 224 312 223 255 c 1
313 -16 m 0
 126 -16 52 105 53 294 c 0
 54 391 84 488 144 584 c 0
 188 654 247 704 322 734 c 0
 361 749 404 757 452 757 c 0
 544 757 611 720 653 645 c 1
 655 646 656 666 656 705 c 2
 656 718 l 2
 656 886 615 999 532 1057 c 0
 505 1076 477 1085 446 1085 c 0
 346 1085 285 1027 285 932 c 1
 205 932 165 962 165 1021 c 0
 165 1127 273 1182 388 1182 c 0
 630 1182 746 1004 746 761 c 0
 746 393 634 -16 313 -16 c 0
EndSplineSet
EndChar

StartChar: percent
Encoding: 37 37 284
Width: 1579
VWidth: 0
GlyphClass: 2
Flags: HW
LayerCount: 2
Fore
SplineSet
1258 84 m 0
 1346 84 1380 182 1380 287 c 0
 1380 406 1347 490 1254 490 c 0
 1170 490 1138 390 1138 287 c 0
 1138 173 1168 84 1258 84 c 0
1259 594 m 0
 1420 594 1519 467 1519 293 c 2
 1519 287 l 1
 1520 108 1425 -19 1259 -19 c 0
 1098 -19 1001 101 999 287 c 0
 998 466 1094 594 1259 594 c 0
1223 1196 m 1
 1284 1146 l 1
 341 -50 l 1
 273 0 l 1
 1223 1196 l 1
326 660 m 0
 415 660 447 757 447 863 c 0
 447 982 414 1066 321 1066 c 0
 237 1066 205 966 205 863 c 0
 206 749 236 660 326 660 c 0
326 1170 m 0
 489 1170 586 1040 586 863 c 0
 586 684 491 557 326 557 c 0
 165 557 66 676 66 863 c 0
 66 1041 162 1170 326 1170 c 0
EndSplineSet
EndChar

StartChar: period
Encoding: 46 46 285
Width: 414
VWidth: 0
GlyphClass: 2
Flags: HW
LayerCount: 2
Fore
SplineSet
86 211 m 1
 313 211 l 1
 313 0 l 1
 86 0 l 1
 86 211 l 1
EndSplineSet
EndChar

StartChar: periodcentered
Encoding: 183 183 286
Width: 414
VWidth: 0
GlyphClass: 2
Flags: HW
LayerCount: 2
Fore
SplineSet
86 657 m 1
 313 657 l 1
 313 446 l 1
 86 446 l 1
 86 657 l 1
EndSplineSet
EndChar

StartChar: pi
Encoding: 960 960 287
Width: 1032
VWidth: 0
GlyphClass: 2
Flags: HW
LayerCount: 2
Fore
SplineSet
773 223 m 0
 773 136 791 94 864 94 c 0
 881 94 903 99 932 109 c 1
 932 27 l 1
 901 0 859 -13 808 -13 c 0
 699 -13 644 53 644 184 c 0
 644 278 657 462 682 735 c 1
 380 735 l 1
 358 279 l 2
 349 112 304 0 140 0 c 2
 68 0 l 1
 68 76 l 1
 158 76 213 157 232 319 c 1
 247 457 264 597 279 735 c 1
 221 735 l 2
 166 735 134 701 127 633 c 1
 51 633 l 1
 51 747 84 822 149 858 c 0
 172 871 201 878 234 877 c 1
 962 877 l 1
 962 735 l 1
 782 735 l 1
 777 492 l 1
 775 347 l 2
 774 296 773 255 773 223 c 0
EndSplineSet
EndChar

StartChar: plus
Encoding: 43 43 288
Width: 1047
VWidth: 0
GlyphClass: 2
Flags: HW
LayerCount: 2
Fore
SplineSet
585 994 m 1
 585 602 l 1
 990 602 l 1
 990 485 l 1
 585 485 l 1
 585 93 l 1
 461 93 l 1
 461 485 l 1
 57 485 l 1
 57 602 l 1
 461 602 l 1
 461 994 l 1
 585 994 l 1
EndSplineSet
EndChar

StartChar: plusminus
Encoding: 177 177 289
Width: 1145
VWidth: 0
GlyphClass: 2
Flags: HW
LayerCount: 2
Fore
SplineSet
1012 0 m 1
 133 0 l 1
 133 121 l 1
 1012 121 l 1
 1012 0 l 1
633 1171 m 1
 633 793 l 1
 1012 793 l 1
 1012 672 l 1
 633 672 l 1
 633 293 l 1
 510 293 l 1
 510 672 l 1
 133 672 l 1
 133 793 l 1
 510 793 l 1
 510 1171 l 1
 633 1171 l 1
EndSplineSet
EndChar

StartChar: product
Encoding: 8719 8719 290
Width: 1299
VWidth: 0
GlyphClass: 2
Flags: HW
LayerCount: 2
Fore
SplineSet
215 971 m 1
 212 1051 167 1080 85 1077 c 1
 61 1077 l 1
 61 1153 l 1
 1232 1153 l 1
 1232 1077 l 1
 1207 1077 l 1
 1115 1078 1079 1047 1079 964 c 2
 1079 200 l 1
 1082 119 1126 94 1207 94 c 2
 1232 94 l 1
 1232 18 l 1
 752 18 l 1
 752 94 l 1
 777 94 l 2
 869 94 906 125 906 208 c 2
 906 1064 l 1
 386 1064 l 1
 386 208 l 2
 386 121 431 94 516 94 c 2
 541 94 l 1
 541 18 l 1
 61 18 l 1
 61 94 l 1
 85 94 l 2
 178 94 215 124 215 208 c 2
 215 971 l 1
EndSplineSet
EndChar

StartChar: question
Encoding: 63 63 292
Width: 796
VWidth: 0
GlyphClass: 2
Flags: HW
LayerCount: 2
Fore
SplineSet
452 0 m 1
 280 0 l 1
 280 197 l 1
 452 197 l 1
 452 0 l 1
392 1170 m 0
 579 1170 738 1054 738 868 c 0
 738 742 668 680 582 624 c 0
 471 551 418 485 408 323 c 1
 313 323 l 1
 313 491 356 606 441 669 c 1
 512 720 596 753 596 862 c 0
 596 975 512 1050 401 1050 c 0
 260 1050 189 983 189 849 c 1
 54 849 l 1
 54 1059 192 1170 392 1170 c 0
EndSplineSet
EndChar

StartChar: quotedbl
Encoding: 34 34 294
Width: 665
VWidth: 0
GlyphClass: 2
Flags: HW
LayerCount: 2
Fore
SplineSet
599 1171 m 1
 557 756 l 1
 427 756 l 1
 382 1171 l 1
 599 1171 l 1
276 1171 m 1
 234 756 l 1
 104 756 l 1
 59 1171 l 1
 276 1171 l 1
EndSplineSet
EndChar

StartChar: quotedblbase
Encoding: 8222 8222 295
Width: 785
VWidth: 0
GlyphClass: 2
Flags: HW
LayerCount: 2
Fore
SplineSet
82 211 m 1
 299 211 l 1
 299 0 l 1
 298 -162 234 -240 82 -237 c 1
 82 -150 l 1
 165 -132 194 -100 193 0 c 1
 82 0 l 1
 82 211 l 1
481 211 m 1
 698 211 l 1
 698 0 l 2
 698 -162 633 -239 481 -237 c 1
 481 -150 l 1
 564 -132 592 -99 592 0 c 1
 481 0 l 1
 481 211 l 1
EndSplineSet
EndChar

StartChar: quotedblleft
Encoding: 8220 8220 296
Width: 720
VWidth: 0
GlyphClass: 2
Flags: HW
LayerCount: 2
Fore
SplineSet
632 723 m 1
 415 723 l 1
 415 934 l 1
 416 1096 480 1174 632 1171 c 1
 632 1084 l 1
 549 1066 520 1034 521 934 c 1
 632 934 l 1
 632 723 l 1
299 723 m 1
 82 723 l 1
 82 934 l 2
 82 1096 147 1173 299 1171 c 1
 299 1084 l 1
 216 1066 188 1033 188 934 c 1
 299 934 l 1
 299 723 l 1
EndSplineSet
EndChar

StartChar: quotedblright
Encoding: 8221 8221 297
Width: 704
VWidth: 0
GlyphClass: 2
Flags: HW
LayerCount: 2
Fore
SplineSet
82 1153 m 1
 299 1153 l 1
 299 942 l 1
 298 780 234 702 82 705 c 1
 82 792 l 1
 165 810 194 842 193 942 c 1
 82 942 l 1
 82 1153 l 1
415 1153 m 1
 632 1153 l 1
 632 942 l 2
 632 780 567 703 415 705 c 1
 415 792 l 1
 498 810 526 843 526 942 c 1
 415 942 l 1
 415 1153 l 1
EndSplineSet
EndChar

StartChar: quoteleft
Encoding: 8216 8216 298
Width: 382
VWidth: 0
GlyphClass: 2
Flags: HW
LayerCount: 2
Fore
SplineSet
299 723 m 1
 82 723 l 1
 82 934 l 2
 82 1096 147 1173 299 1171 c 1
 299 1084 l 1
 216 1066 188 1033 188 934 c 1
 299 934 l 1
 299 723 l 1
EndSplineSet
EndChar

StartChar: quoteright
Encoding: 8217 8217 299
Width: 364
VWidth: 0
GlyphClass: 2
Flags: HW
LayerCount: 2
Fore
SplineSet
82 1153 m 1
 299 1153 l 1
 299 942 l 1
 298 780 234 702 82 705 c 1
 82 792 l 1
 165 810 194 842 193 942 c 1
 82 942 l 1
 82 1153 l 1
EndSplineSet
EndChar

StartChar: quotesinglbase
Encoding: 8218 8218 300
Width: 389
VWidth: 0
GlyphClass: 2
Flags: HW
LayerCount: 2
Fore
SplineSet
82 211 m 1
 299 211 l 1
 299 0 l 1
 298 -162 234 -240 82 -237 c 1
 82 -150 l 1
 165 -132 194 -100 193 0 c 1
 82 0 l 1
 82 211 l 1
EndSplineSet
EndChar

StartChar: quotesingle
Encoding: 39 39 301
Width: 337
VWidth: 0
GlyphClass: 2
Flags: HW
LayerCount: 2
Fore
SplineSet
284 1171 m 1
 242 756 l 1
 112 756 l 1
 67 1171 l 1
 284 1171 l 1
EndSplineSet
EndChar

StartChar: r
Encoding: 114 114 302
Width: 743
VWidth: 0
GlyphClass: 2
Flags: HW
LayerCount: 2
Fore
SplineSet
304 270 m 1
 364 692 564 719 683 663 c 1
 698 785 l 1
 554 873 423 839 291 430 c 1
 304 270 l 1
EndSplineSet
Refer: 241 -1 N 1 0 0 1 14 0 2
EndChar

StartChar: radical
Encoding: 8730 8730 304
Width: 686
VWidth: 0
GlyphClass: 2
Flags: HW
LayerCount: 2
Fore
SplineSet
415 0 m 1
 327 0 l 1
 145 513 l 1
 39 513 l 1
 39 589 l 1
 229 589 l 1
 380 160 l 1
 681 1153 l 1
 767 1153 l 1
 415 0 l 1
EndSplineSet
EndChar

StartChar: registered
Encoding: 174 174 307
Width: 1338
VWidth: 0
GlyphClass: 2
Flags: HW
LayerCount: 2
Fore
SplineSet
689 631 m 2
 761 631 809 660 809 725 c 2
 809 733 l 2
 809 795 768 826 685 826 c 2
 568 826 l 1
 568 631 l 1
 689 631 l 2
692 895 m 2
 816 895 898 846 898 733 c 0
 898 644 851 591 758 572 c 1
 885 337 l 1
 964 337 l 1
 964 269 l 1
 827 269 l 1
 673 561 l 1
 568 561 l 1
 568 337 l 1
 653 337 l 1
 653 269 l 1
 393 269 l 1
 393 337 l 1
 481 337 l 1
 481 826 l 1
 393 826 l 1
 393 895 l 1
 692 895 l 2
667 1077 m 0
 375 1077 184 858 184 575 c 0
 184 294 376 74 666 74 c 0
 958 74 1149 294 1151 575 c 1
 1149 857 960 1077 667 1077 c 0
68 575 m 0
 68 917 312 1171 668 1171 c 0
 1024 1171 1268 917 1268 575 c 0
 1268 233 1023 -18 668 -18 c 0
 313 -18 68 233 68 575 c 0
EndSplineSet
EndChar

StartChar: ring
Encoding: 730 730 308
Width: 565
VWidth: 0
GlyphClass: 2
Flags: HW
LayerCount: 2
Fore
SplineSet
177 1042 m 0
 178 985 225 944 282 943 c 0
 337 943 386 979 386 1042 c 0
 386 1096 346 1140 282 1140 c 0
 226 1140 177 1098 177 1042 c 0
114 1042 m 0
 114 1134 189 1202 282 1201 c 1
 375 1202 451 1133 451 1042 c 0
 452 950 373 882 282 881 c 1
 190 881 114 950 114 1042 c 0
EndSplineSet
EndChar

StartChar: s
Encoding: 115 115 309
Width: 840
VWidth: 0
GlyphClass: 2
Flags: HW
LayerCount: 2
Fore
SplineSet
771 214 m 0
 771 52 646 -18 476 -18 c 0
 382 -18 274 5 233 80 c 1
 233 0 l 1
 100 0 l 1
 100 272 l 1
 233 272 l 1
 233 253 l 2
 233 162 340 100 439 100 c 0
 561 100 625 139 622 217 c 0
 619 302 578 300 433 335 c 0
 204 390 98 416 98 594 c 0
 98 742 231 820 374 820 c 0
 486 820 562 784 600 730 c 1
 600 805 l 1
 729 805 l 1
 729 549 l 1
 600 549 l 1
 600 566 l 2
 600 663 486 702 401 702 c 0
 323 702 250 682 246 600 c 0
 242 513 311 510 410 486 c 0
 654 427 771 404 771 214 c 0
EndSplineSet
EndChar

StartChar: section
Encoding: 167 167 315
Width: 877
VWidth: 0
GlyphClass: 2
Flags: HW
LayerCount: 2
Fore
SplineSet
331 626 m 1
 265 587 213 549 213 462 c 0
 213 387 266 351 321 324 c 0
 395 287 482 259 560 220 c 1
 643 263 685 319 685 388 c 0
 685 465 628 499 572 526 c 0
 498 562 408 588 331 626 c 1
781 -35 m 0
 781 -204 648 -320 481 -320 c 0
 335 -320 228 -267 160 -160 c 1
 262 -77 l 1
 303 -157 372 -197 468 -197 c 1
 553 -196 640 -147 640 -67 c 0
 640 42 547 78 466 110 c 0
 276 183 88 241 88 431 c 0
 88 552 161 616 248 674 c 1
 161 726 118 801 118 899 c 0
 118 1063 276 1171 448 1171 c 2
 450 1171 l 2
 610 1171 730 1100 770 969 c 1
 645 924 l 1
 620 1010 561 1054 466 1054 c 0
 358 1054 257 1012 257 913 c 0
 257 781 435 736 534 698 c 0
 679 641 809 583 809 419 c 0
 809 322 756 240 650 173 c 1
 737 122 781 52 781 -35 c 0
EndSplineSet
EndChar

StartChar: semicolon
Encoding: 59 59 316
Width: 414
VWidth: 0
GlyphClass: 2
Flags: HW
LayerCount: 2
Fore
SplineSet
100 211 m 1
 327 211 l 1
 327 0 l 1
 328 -164 257 -239 100 -237 c 1
 100 -150 l 1
 187 -132 221 -100 221 0 c 1
 100 0 l 1
 100 211 l 1
93 820 m 1
 320 820 l 1
 320 609 l 1
 93 609 l 1
 93 820 l 1
EndSplineSet
EndChar

StartChar: seven
Encoding: 55 55 317
Width: 819
VWidth: 0
GlyphClass: 2
Flags: HW
LayerCount: 2
Fore
SplineSet
641 1036 m 1
 188 1036 l 1
 188 860 l 1
 51 860 l 1
 51 1153 l 1
 809 1153 l 1
 809 1025 l 1
 585 798 450 516 450 116 c 1
 632 116 l 1
 632 0 l 1
 121 0 l 1
 121 116 l 1
 293 116 l 1
 293 471 439 818 641 1036 c 1
EndSplineSet
EndChar

StartChar: six
Encoding: 54 54 318
Width: 947
VWidth: 0
GlyphClass: 2
Flags: HW
LayerCount: 2
Fore
SplineSet
498 -18 m 0
 211 -18 86 232 86 575 c 0
 86 899 193 1171 495 1171 c 2
 497 1171 l 2
 699 1171 842 1043 847 848 c 1
 710 848 l 1
 698 949 621 1045 515 1045 c 0
 310 1045 236 862 236 639 c 1
 304 695 395 722 508 722 c 0
 729 721 867 580 867 362 c 0
 867 144 720 -18 498 -18 c 0
722 362 m 0
 722 490 652 592 519 592 c 0
 416 592 302 555 242 509 c 1
 256 308 301 116 487 116 c 0
 637 116 722 214 722 362 c 0
EndSplineSet
EndChar

StartChar: slash
Encoding: 47 47 319
Width: 793
VWidth: 0
GlyphClass: 2
Flags: HW
LayerCount: 2
Fore
SplineSet
129 -18 m 1
 563 1171 l 1
 692 1171 l 1
 258 -18 l 1
 129 -18 l 1
EndSplineSet
EndChar

StartChar: sterling
Encoding: 163 163 321
Width: 993
VWidth: 0
GlyphClass: 2
Flags: HW
LayerCount: 2
Fore
SplineSet
158 154 m 0
 158 100 189 65 249 65 c 2
 254 65 l 2
 294 65 334 98 373 163 c 1
 312 213 265 241 234 247 c 1
 187 247 158 202 158 154 c 0
701 -18 m 0
 608 -18 515 46 444 98 c 1
 393 21 332 -18 261 -18 c 0
 139 -18 51 40 51 151 c 0
 51 253 139 338 246 338 c 0
 304 338 361 312 416 261 c 1
 421 279 423 298 423 319 c 0
 423 376 398 446 349 529 c 1
 132 529 l 1
 132 645 l 1
 287 645 l 1
 248 726 229 794 229 850 c 0
 229 1057 362 1171 569 1171 c 2
 572 1171 l 2
 768 1171 884 1065 887 863 c 1
 752 863 l 1
 752 989 694 1052 579 1052 c 0
 461 1052 371 996 371 886 c 0
 371 781 412 717 450 645 c 1
 818 645 l 1
 818 529 l 1
 505 529 l 1
 528 473 539 419 539 366 c 0
 539 313 526 260 499 207 c 1
 552 175 641 122 690 122 c 0
 812 122 833 176 841 290 c 1
 934 290 l 1
 934 94 890 -18 701 -18 c 0
EndSplineSet
EndChar

StartChar: summation
Encoding: 8721 8721 322
Width: 1132
VWidth: 0
GlyphClass: 2
Flags: HW
LayerCount: 2
Fore
SplineSet
773 -21 m 2
 859 -21 908 29 920 129 c 1
 927 181 l 1
 1019 181 l 1
 1011 -179 l 1
 62 -179 l 1
 62 -96 l 1
 473 535 l 1
 98 1086 l 1
 98 1153 l 1
 940 1153 l 1
 948 861 l 1
 856 861 l 1
 848 935 l 1
 831 1020 784 1062 709 1062 c 2
 305 1062 l 1
 615 590 l 1
 615 532 l 1
 252 -21 l 1
 773 -21 l 2
EndSplineSet
EndChar

StartChar: t
Encoding: 116 116 323
Width: 565
VWidth: 0
GlyphClass: 2
Flags: HWO
LayerCount: 2
Fore
SplineSet
146 689 m 1
 146 273 l 2
 146 62 225.026315789 -4 419 -4 c 2
 507 -4 l 1
 507 112 l 1
 452 112 l 2
 323 112 297 127 297 285 c 2
 297 689 l 1
 477 689 l 1
 477 805 l 1
 297 805 l 1
 297 1095 l 1
 146 1063 l 1
 146 805 l 1
 22 805 l 1
 22 689 l 1
 146 689 l 1
EndSplineSet
EndChar

StartChar: thorn
Encoding: 254 254 326
Width: 1026
VWidth: 0
GlyphClass: 2
Flags: HW
LayerCount: 2
Fore
SplineSet
25 1153 m 1
 319 1153 l 1
 319 707 l 1
 401 782 501 820 619 820 c 0
 855 820 1012 641 1013 406 c 0
 1014 169 852 -18 614 -18 c 0
 494 -18 375 23 318 91 c 1
 318 -303 l 1
 24 -303 l 1
 24 -179 l 1
 168 -179 l 1
 168 1037 l 1
 25 1037 l 1
 25 1153 l 1
850 396 m 0
 850 566 743 694 570 694 c 0
 482 694 398 651 319 564 c 1
 319 229 l 1
 399 144 471 107 582 107 c 0
 747 107 850 231 850 396 c 0
EndSplineSet
EndChar

StartChar: three
Encoding: 51 51 327
Width: 953
VWidth: 0
GlyphClass: 2
Flags: HW
LayerCount: 2
Fore
SplineSet
443 1038 m 0
 307 1038 236 973 227 852 c 1
 79 853 l 1
 87 1055 221 1170 451 1170 c 0
 664 1170 823 1069 823 864 c 0
 823 727 758 639 628 602 c 1
 772 575 872 483 872 322 c 0
 872 98 673 -18 450 -18 c 2
 447 -18 l 2
 203 -18 51 104 51 346 c 1
 198 346 l 1
 211 203 291 116 443 116 c 0
 603 116 708 177 708 328 c 0
 708 464 586 532 342 532 c 1
 342 664 l 1
 548 664 669 682 669 850 c 0
 669 975 573 1038 443 1038 c 0
EndSplineSet
EndChar

StartChar: threequarters
Encoding: 190 190 328
Width: 1936
VWidth: 0
GlyphClass: 2
Flags: HW
LayerCount: 2
Fore
SplineSet
1524 352 m 1
 1524 765 l 1
 1270 352 l 1
 1524 352 l 1
1759 94 m 1
 1759 0 l 1
 1392 0 l 1
 1392 94 l 1
 1524 94 l 1
 1524 254 l 1
 1153 254 l 1
 1153 352 l 1
 1527 931 l 1
 1639 931 l 1
 1639 352 l 1
 1792 352 l 1
 1792 254 l 1
 1639 254 l 1
 1639 94 l 1
 1759 94 l 1
558 926 m 0
 558 1022 484 1068 383 1068 c 0
 282 1068 234 1013 228 921 c 1
 117 941 l 1
 122 1082 229 1171 378 1171 c 0
 552 1170 669 1103 673 941 c 1
 673 838 623 772 522 743 c 1
 620 725 707 656 707 550 c 0
 707 368 571 283 381 283 c 2
 378 283 l 2
 207 283 96 375 96 554 c 1
 206 557 l 1
 215 461 275 383 373 383 c 0
 487 383 587 424 587 520 c 1
 583 663 508 693 313 693 c 1
 313 792 l 1
 481 792 558 814 558 926 c 0
1146 1170 m 1
 1235 1170 l 1
 821 0 l 1
 731 0 l 1
 1146 1170 l 1
EndSplineSet
EndChar

StartChar: tilde
Encoding: 732 732 329
Width: 587
VWidth: 0
GlyphClass: 2
Flags: HW
LayerCount: 2
Fore
SplineSet
137 1024 m 0
 100 1024 77 1003 69 962 c 1
 -11 962 l 1
 -2 1067 35 1132 102 1159 c 0
 122 1167 144 1171 168 1171 c 0
 201 1171 250 1159 314 1136 c 0
 378 1113 421 1101 443 1101 c 0
 484 1101 510 1123 520 1166 c 1
 598 1166 l 1
 589 1054 538 953 428 954 c 0
 381 954 326 966 265 989 c 0
 204 1012 161 1024 137 1024 c 0
EndSplineSet
EndChar

StartChar: trademark
Encoding: 8482 8482 330
Width: 1986
VWidth: 0
GlyphClass: 2
Flags: HW
LayerCount: 2
Fore
SplineSet
951 1057 m 1
 849 1057 l 1
 849 1153 l 1
 1128 1153 l 1
 1349 634 l 1
 1574 1153 l 1
 1856 1153 l 1
 1856 1057 l 1
 1755 1057 l 1
 1755 483 l 1
 1856 483 l 1
 1856 388 l 1
 1547 388 l 1
 1547 483 l 1
 1639 483 l 1
 1639 1014 l 1
 1367 388 l 1
 1328 388 l 1
 1057 1012 l 1
 1057 483 l 1
 1150 483 l 1
 1150 388 l 1
 849 388 l 1
 849 483 l 1
 951 483 l 1
 951 1057 l 1
790 1153 m 1
 790 898 l 1
 685 898 l 1
 685 1057 l 1
 524 1057 l 1
 524 483 l 1
 644 483 l 1
 644 388 l 1
 276 388 l 1
 276 483 l 1
 396 483 l 1
 396 1057 l 1
 231 1057 l 1
 231 898 l 1
 127 898 l 1
 127 1153 l 1
 790 1153 l 1
EndSplineSet
EndChar

StartChar: two
Encoding: 50 50 331
Width: 936
VWidth: 0
GlyphClass: 2
Flags: HW
LayerCount: 2
Fore
SplineSet
666 860 m 0
 666 982 581 1038 447 1038 c 0
 281 1038 239 930 239 750 c 2
 239 744 l 1
 95 744 l 1
 95 1019 196 1171 462 1171 c 0
 670 1171 832 1060 832 858 c 0
 832 504 289 423 228 116 c 1
 700 116 l 1
 700 378 l 1
 827 378 l 1
 827 0 l 1
 62 0 l 1
 62 172 133 319 274 442 c 0
 401 552 666 676 666 860 c 0
EndSplineSet
EndChar

StartChar: u
Encoding: 117 117 332
Width: 990
VWidth: 0
GlyphClass: 2
Flags: HW
LayerCount: 2
Fore
SplineSet
817 116 m 1
 817 805 l 1
 503 805 l 1
 503 689 l 1
 666 689 l 1
 666 229 l 1
 594 152 509 107 419 107 c 0
 336 107 293 161 293 268 c 2
 293 805 l 1
 2 805 l 1
 2 689 l 1
 145 689 l 1
 145 261 l 2
 145 75 228 -18 394 -18 c 0
 493 -18 583 30 666 109 c 1
 671 0 l 1
 963 0 l 1
 963 116 l 1
 817 116 l 1
EndSplineSet
EndChar

StartChar: uc_main_stem
Encoding: 65546 -1 335
Width: 572
VWidth: 0
Flags: HW
LayerCount: 2
Fore
SplineSet
72 1152 m 1
 72 1036 l 1
 206 1036 l 1
 206 116 l 1
 72 116 l 1
 72 0 l 1
 500 0 l 1
 500 116 l 1
 368 116 l 1
 368 1036 l 1
 500 1036 l 1
 500 1152 l 1
 72 1152 l 1
EndSplineSet
EndChar

StartChar: underscore
Encoding: 95 95 341
Width: 898
VWidth: 0
GlyphClass: 2
Flags: HW
LayerCount: 2
Fore
SplineSet
898 -82 m 1
 898 -199 l 1
 0 -199 l 1
 0 -82 l 1
 898 -82 l 1
EndSplineSet
EndChar

StartChar: uni00B2
Encoding: 178 178 363
Width: 747
VWidth: 0
GlyphClass: 2
Flags: HW
LayerCount: 2
Fore
SplineSet
653 300 m 1
 87 300 l 1
 87 436 144 551 258 644 c 0
 355 723 533 800 533 936 c 0
 533 1025 480 1070 375 1070 c 0
 245 1070 216 994 216 854 c 1
 109 854 l 1
 109 1065 197 1171 374 1171 c 0
 540 1171 657 1088 657 939 c 0
 657 682 253 617 208 401 c 1
 559 401 l 1
 559 581 l 1
 653 581 l 1
 653 300 l 1
EndSplineSet
EndChar

StartChar: uni00B3
Encoding: 179 179 364
Width: 783
VWidth: 0
GlyphClass: 2
Flags: HW
LayerCount: 2
Fore
SplineSet
553 926 m 0
 553 1023 481 1068 379 1068 c 0
 278 1068 229 1013 223 921 c 1
 112 941 l 1
 117 1082 224 1171 373 1171 c 0
 545 1170 668 1104 668 941 c 0
 668 838 618 772 517 743 c 1
 616 725 702 657 702 550 c 0
 702 370 564 283 376 283 c 2
 373 283 l 2
 205 283 91 372 91 547 c 2
 91 557 l 1
 201 557 l 1
 210 461 270 383 368 383 c 0
 482 383 582 424 582 520 c 0
 582 664 505 693 308 693 c 1
 308 792 l 1
 476 792 553 814 553 926 c 0
EndSplineSet
EndChar

StartChar: uni00B5
Encoding: 181 181 365
AltUni2: 0003bc.ffffffff.0
Width: 925
VWidth: 0
GlyphClass: 2
Flags: HW
LayerCount: 2
Fore
SplineSet
824 116 m 1
 970 116 l 1
 970 0 l 1
 678 0 l 1
 673 100 l 1
 542 25 474 -27 395 -27 c 0
 361 -27 325 -17 281 4 c 1
 281 -368 l 1
 152 -368 l 1
 152 689 l 1
 32 689 l 1
 32 805 l 1
 304 805 l 1
 304 268 l 2
 304 169 333 107 429 107 c 0
 519 107 600 155 673 250 c 1
 673 689 l 1
 528 689 l 1
 528 805 l 1
 824 805 l 1
 824 116 l 1
EndSplineSet
EndChar

StartChar: uni00B9
Encoding: 185 185 366
Width: 476
VWidth: 0
GlyphClass: 2
Flags: HW
LayerCount: 2
Fore
SplineSet
297 392 m 1
 411 392 l 1
 411 299 l 1
 63 299 l 1
 63 392 l 1
 186 392 l 1
 186 1059 l 1
 57 1059 l 1
 57 1153 l 1
 297 1153 l 1
 297 392 l 1
EndSplineSet
EndChar

StartChar: uni0237
Encoding: 567 567 407
Width: 441
VWidth: 0
GlyphClass: 2
Flags: HW
LayerCount: 2
Fore
SplineSet
47 -179 m 2
 145 -179 163 -113 163 -8 c 2
 163 689 l 1
 11 689 l 1
 11 805 l 1
 314 805 l 1
 314 19 l 2
 314 -89 302 -162 279 -198 c 0
 230 -274 159 -303 31 -303 c 2
 -60 -303 l 1
 -60 -179 l 1
 47 -179 l 2
EndSplineSet
EndChar

StartChar: uni0307
Encoding: 775 775 408
Width: 535
VWidth: 0
GlyphClass: 2
Flags: HW
LayerCount: 2
Fore
SplineSet
177 1038 m 0
 176 1088 219 1125 268 1125 c 0
 317 1125 359 1093 359 1038 c 1
 360 992 325 950 268 950 c 0
 220 950 177 990 177 1038 c 0
EndSplineSet
EndChar

StartChar: uni030F
Encoding: 783 783 409
Width: 587
VWidth: 0
GlyphClass: 2
Flags: HW
LayerCount: 2
Fore
SplineSet
277 899 m 1
 181 899 l 1
 -3 1171 l 1
 187 1171 l 1
 277 899 l 1
538 899 m 1
 443 899 l 1
 258 1171 l 1
 448 1171 l 1
 538 899 l 1
EndSplineSet
EndChar

StartChar: uni0311
Encoding: 785 785 410
Width: 584
VWidth: 0
GlyphClass: 2
Flags: HW
LayerCount: 2
Fore
SplineSet
144 940 m 1
 34 940 l 1
 45 1069 153 1152 292 1153 c 1
 432 1152 537 1068 550 940 c 1
 439 940 l 1
 429 1014 374 1058 292 1058 c 0
 207 1058 158 1019 144 940 c 1
EndSplineSet
EndChar

StartChar: uni0326
Encoding: 806 806 411
Width: 554
VWidth: 0
GlyphClass: 2
Flags: HW
LayerCount: 2
Fore
SplineSet
151 -278 m 1
 151 -66 l 1
 363 -66 l 1
 363 -278 l 1
 362 -437 299 -512 151 -515 c 1
 151 -427 l 1
 229 -411 257 -373 257 -278 c 1
 151 -278 l 1
EndSplineSet
EndChar

StartChar: uni2074
Encoding: 8308 8308 412
Width: 875
VWidth: 0
GlyphClass: 2
Flags: HW
LayerCount: 2
Fore
SplineSet
107 254 m 1
 107 352 l 1
 481 931 l 1
 593 931 l 1
 593 352 l 1
 746 352 l 1
 746 254 l 1
 593 254 l 1
 593 94 l 1
 713 94 l 1
 713 0 l 1
 346 0 l 1
 346 94 l 1
 478 94 l 1
 478 254 l 1
 107 254 l 1
224 352 m 1
 478 352 l 1
 478 765 l 1
 224 352 l 1
EndSplineSet
EndChar

StartChar: uni2206
Encoding: 8710 8710 413
Width: 996
VWidth: 0
GlyphClass: 2
Flags: HW
LayerCount: 2
Fore
SplineSet
752 117 m 1
 673 363 579 648 502 877 c 0
 489 916 477 954 468 993 c 1
 453 928 430 850 398 761 c 2
 171 117 l 1
 752 117 l 1
943 0 m 1
 48 0 l 1
 48 91 l 1
 429 1166 l 1
 577 1166 l 1
 943 102 l 1
 943 0 l 1
EndSplineSet
EndChar

StartChar: uniFB01
Encoding: 64257 64257 414
Width: 1029
VWidth: 0
GlyphClass: 2
Flags: HW
LayerCount: 2
Fore
SplineSet
795 979 m 0
 735 979 694 1010 694 1066 c 0
 694 1120 732 1151 795 1152 c 0
 837 1153 877 1110 877 1066 c 0
 877 1021 837 979 795 979 c 0
486 963 m 1
 486 1017 464 1053 416 1053 c 0
 363 1053 336 1013 336 934 c 2
 336 805 l 1
 861 805 l 1
 861 116 l 1
 997 116 l 1
 997 0 l 1
 577 0 l 1
 577 116 l 1
 712 116 l 1
 712 689 l 1
 336 689 l 1
 336 116 l 1
 498 116 l 1
 498 0 l 1
 65 0 l 1
 65 116 l 1
 185 116 l 1
 185 689 l 1
 56 689 l 1
 56 805 l 1
 185 805 l 1
 185 943 l 2
 185 1054 231 1125 323 1156 c 0
 412 1185 505 1171 555 1124 c 1
 596 1088 616 1034 616 963 c 1
 486 963 l 1
EndSplineSet
Ligature2: "ligaStandardLigatureslookup0 subtable" f i
EndChar

StartChar: uniFB02
Encoding: 64258 64258 415
Width: 1009
VWidth: 0
GlyphClass: 2
Flags: HW
LayerCount: 2
Fore
SplineSet
416 1037 m 2
 349 1037 336 1002 336 934 c 2
 336 805 l 1
 509 805 l 1
 509 689 l 1
 336 689 l 1
 336 116 l 1
 472 116 l 1
 472 0 l 1
 65 0 l 1
 65 116 l 1
 185 116 l 1
 185 689 l 1
 56 689 l 1
 56 805 l 1
 185 805 l 1
 185 943 l 2
 185 1083 263 1153 418 1153 c 2
 844 1153 l 1
 844 116 l 1
 977 116 l 1
 977 0 l 1
 561 0 l 1
 561 116 l 1
 695 116 l 1
 695 1037 l 1
 416 1037 l 2
EndSplineSet
Ligature2: "ligaStandardLigatureslookup0 subtable" f l
EndChar

StartChar: v
Encoding: 118 118 419
Width: 944
VWidth: 0
GlyphClass: 2
Flags: HW
LayerCount: 2
Fore
SplineSet
401 689 m 1
 401 805 l 1
 -10 805 l 1
 -10 689 l 1
 122 689 l 1
 414 0 l 1
 550 0 l 1
 821 689 l 1
 954 689 l 1
 954 805 l 1
 552 805 l 1
 552 689 l 1
 672 689 l 1
 481 162 l 1
 279 689 l 1
 401 689 l 1
EndSplineSet
EndChar

StartChar: w
Encoding: 119 119 420
Width: 1386
VWidth: 0
GlyphClass: 2
Flags: HW
LayerCount: 2
Fore
SplineSet
347 689 m 1
 347 805 l 1
 -7 805 l 1
 -7 689 l 1
 97 689 l 1
 343 0 l 1
 478 0 l 1
 689 622 l 1
 895 0 l 1
 1031 0 l 5
 1271 689 l 1
 1393 689 l 1
 1393 805 l 1
 1017 805 l 1
 1017 689 l 1
 1137 689 l 1
 964 146 l 5
 777 689 l 1
 884 689 l 1
 884 805 l 1
 486 805 l 1
 486 689 l 1
 595 689 l 1
 412 157 l 1
 237 689 l 1
 347 689 l 1
EndSplineSet
EndChar

StartChar: x
Encoding: 120 120 421
Width: 959
VWidth: 0
GlyphClass: 2
Flags: HW
LayerCount: 2
Fore
SplineSet
432 689 m 1
 432 805 l 1
 42 805 l 1
 42 689 l 1
 161 689 l 1
 404 413 l 1
 149 116 l 1
 23 116 l 1
 23 0 l 1
 424 0 l 1
 424 116 l 1
 308 116 l 1
 481 327 l 1
 667 116 l 1
 540 116 l 1
 540 0 l 1
 936 0 l 1
 936 116 l 1
 820 116 l 1
 560 413 l 1
 795 689 l 1
 932 689 l 1
 932 805 l 1
 542 805 l 1
 542 689 l 1
 639 689 l 1
 481 500 l 1
 317 689 l 1
 432 689 l 1
EndSplineSet
EndChar

StartChar: y
Encoding: 121 121 422
Width: 958
VWidth: 0
GlyphClass: 2
Flags: HW
LayerCount: 2
Fore
SplineSet
146 -320 m 1
 232 -320 l 2
 474 -320 535 -179 606 36 c 1
 834 689 l 1
 963 689 l 1
 963 805 l 1
 550 805 l 1
 550 689 l 1
 665 689 l 1
 485 140 l 1
 266 689 l 1
 390 689 l 1
 390 805 l 1
 -16 805 l 1
 -16 689 l 1
 109 689 l 1
 373 43 l 1
 455 43 l 1
 423 -42 l 2
 383 -149 352 -187 220 -187 c 2
 146 -187 l 1
 146 -320 l 1
EndSplineSet
EndChar

StartChar: yen
Encoding: 165 165 425
Width: 1130
VWidth: 0
GlyphClass: 2
Flags: HW
LayerCount: 2
Fore
SplineSet
885 414 m 1
 885 297 l 1
 646 297 l 1
 646 116 l 1
 810 116 l 1
 810 0 l 1
 327 0 l 1
 327 116 l 1
 486 116 l 1
 486 297 l 1
 249 297 l 1
 249 414 l 1
 486 414 l 1
 486 503 l 1
 249 503 l 1
 249 622 l 1
 421 622 l 1
 128 1037 l 1
 -18 1037 l 1
 -18 1153 l 1
 454 1153 l 1
 454 1037 l 1
 304 1037 l 1
 578 648 l 1
 835 1037 l 1
 685 1037 l 1
 685 1153 l 1
 1145 1153 l 1
 1145 1037 l 1
 989 1037 l 1
 708 622 l 1
 885 622 l 1
 885 503 l 1
 646 503 l 1
 646 414 l 1
 885 414 l 1
EndSplineSet
EndChar

StartChar: z
Encoding: 122 122 426
Width: 821
VWidth: 0
GlyphClass: 2
Flags: HW
LayerCount: 2
Fore
SplineSet
768 0 m 1
 768 276 l 1
 640 276 l 1
 640 116 l 1
 248 116 l 1
 743 683 l 1
 743 805 l 1
 103 805 l 1
 103 537 l 1
 224 537 l 1
 224 689 l 1
 561 689 l 1
 68 116 l 1
 68 0 l 1
 768 0 l 1
EndSplineSet
EndChar

StartChar: zero
Encoding: 48 48 430
Width: 1004
VWidth: 0
GlyphClass: 2
Flags: HW
LayerCount: 2
Fore
SplineSet
502 -18 m 0
 197 -18 87 252 87 577 c 0
 87 923 195 1171 502 1171 c 0
 807 1171 917 902 917 577 c 0
 916 230 808 -18 502 -18 c 0
501 1051 m 0
 298 1051 241 832 241 576 c 0
 241 290 288 105 498 101 c 1
 725 101 764 312 764 575 c 0
 764 835 723 1051 501 1051 c 0
EndSplineSet
EndChar
